<mxfile host="app.diagrams.net" modified="2022-07-30T14:16:59.625Z" agent="5.0 (Macintosh; Intel Mac OS X 10_15_7) AppleWebKit/605.1.15 (KHTML, like Gecko) Version/15.5 Safari/605.1.15" etag="rRgmpYuzRoyFBjS_p4m0" version="20.2.2" type="github">
  <diagram id="4LIUEjnOlDbOOYkyx1Xb" name="Architecture">
    <mxGraphModel dx="1141" dy="800" grid="1" gridSize="10" guides="1" tooltips="1" connect="1" arrows="1" fold="1" page="1" pageScale="1" pageWidth="1100" pageHeight="850" math="0" shadow="0">
      <root>
        <mxCell id="0" />
        <mxCell id="1" parent="0" />
        <mxCell id="BgLFl1xyS9uxn1Ycca5y-41" value="" style="outlineConnect=0;fontColor=#232F3E;gradientColor=#945DF2;gradientDirection=north;fillColor=#5A30B5;strokeColor=#ffffff;dashed=0;verticalLabelPosition=bottom;verticalAlign=top;align=center;html=1;fontSize=12;fontStyle=0;aspect=fixed;shape=mxgraph.aws4.resourceIcon;resIcon=mxgraph.aws4.cloudfront;" parent="1" vertex="1">
          <mxGeometry x="305.67" y="521" width="78" height="78" as="geometry" />
        </mxCell>
        <mxCell id="BgLFl1xyS9uxn1Ycca5y-42" style="rounded=0;orthogonalLoop=1;jettySize=auto;html=1;startArrow=classic;startFill=1;entryX=0.92;entryY=0.412;entryDx=0;entryDy=0;entryPerimeter=0;" parent="1" source="BgLFl1xyS9uxn1Ycca5y-43" target="BgLFl1xyS9uxn1Ycca5y-71" edge="1">
          <mxGeometry relative="1" as="geometry">
            <mxPoint x="223.67" y="161" as="targetPoint" />
          </mxGeometry>
        </mxCell>
        <mxCell id="BgLFl1xyS9uxn1Ycca5y-43" value="Video-Plugin&lt;br&gt;APIG" style="outlineConnect=0;fontColor=#232F3E;gradientColor=#F54749;gradientDirection=north;fillColor=#C7131F;strokeColor=#ffffff;dashed=0;verticalLabelPosition=bottom;verticalAlign=top;align=center;html=1;fontSize=12;fontStyle=0;aspect=fixed;shape=mxgraph.aws4.resourceIcon;resIcon=mxgraph.aws4.api_gateway;" parent="1" vertex="1">
          <mxGeometry x="305.67" y="122" width="78" height="78" as="geometry" />
        </mxCell>
        <mxCell id="BgLFl1xyS9uxn1Ycca5y-44" value="CMS&amp;nbsp;" style="outlineConnect=0;fontColor=#232F3E;gradientColor=none;fillColor=#D05C17;strokeColor=none;dashed=0;verticalLabelPosition=bottom;verticalAlign=top;align=center;html=1;fontSize=12;fontStyle=0;aspect=fixed;pointerEvents=1;shape=mxgraph.aws4.lambda_function;" parent="1" vertex="1">
          <mxGeometry x="785.67" y="521" width="78" height="78" as="geometry" />
        </mxCell>
        <mxCell id="BgLFl1xyS9uxn1Ycca5y-45" value="CMS&lt;br&gt;APIG" style="outlineConnect=0;fontColor=#232F3E;gradientColor=#F54749;gradientDirection=north;fillColor=#C7131F;strokeColor=#ffffff;dashed=0;verticalLabelPosition=bottom;verticalAlign=top;align=center;html=1;fontSize=12;fontStyle=0;aspect=fixed;shape=mxgraph.aws4.resourceIcon;resIcon=mxgraph.aws4.api_gateway;" parent="1" vertex="1">
          <mxGeometry x="625.67" y="521" width="78" height="78" as="geometry" />
        </mxCell>
        <mxCell id="BgLFl1xyS9uxn1Ycca5y-46" style="edgeStyle=orthogonalEdgeStyle;rounded=0;orthogonalLoop=1;jettySize=auto;html=1;startArrow=classic;startFill=1;" parent="1" source="BgLFl1xyS9uxn1Ycca5y-44" target="BgLFl1xyS9uxn1Ycca5y-45" edge="1">
          <mxGeometry relative="1" as="geometry" />
        </mxCell>
        <mxCell id="BgLFl1xyS9uxn1Ycca5y-47" style="rounded=0;orthogonalLoop=1;jettySize=auto;html=1;exitX=0.06;exitY=0.5;exitDx=0;exitDy=0;exitPerimeter=0;startArrow=classic;startFill=1;" parent="1" source="BgLFl1xyS9uxn1Ycca5y-62" target="BgLFl1xyS9uxn1Ycca5y-41" edge="1">
          <mxGeometry relative="1" as="geometry" />
        </mxCell>
        <mxCell id="BgLFl1xyS9uxn1Ycca5y-48" value="" style="edgeStyle=orthogonalEdgeStyle;rounded=0;orthogonalLoop=1;jettySize=auto;html=1;startArrow=classic;startFill=1;" parent="1" source="BgLFl1xyS9uxn1Ycca5y-49" target="BgLFl1xyS9uxn1Ycca5y-44" edge="1">
          <mxGeometry relative="1" as="geometry">
            <mxPoint x="865.67" y="560" as="targetPoint" />
          </mxGeometry>
        </mxCell>
        <mxCell id="BgLFl1xyS9uxn1Ycca5y-49" value="CMS&lt;br&gt;DynamoDB" style="outlineConnect=0;fontColor=#232F3E;gradientColor=#4D72F3;gradientDirection=north;fillColor=#3334B9;strokeColor=#ffffff;dashed=0;verticalLabelPosition=bottom;verticalAlign=top;align=center;html=1;fontSize=12;fontStyle=0;aspect=fixed;shape=mxgraph.aws4.resourceIcon;resIcon=mxgraph.aws4.dynamodb;" parent="1" vertex="1">
          <mxGeometry x="945.67" y="521" width="78" height="78" as="geometry" />
        </mxCell>
        <mxCell id="BgLFl1xyS9uxn1Ycca5y-50" value="" style="html=1;aspect=fixed;strokeColor=none;shadow=0;align=center;verticalAlign=top;fillColor=#3B8DF1;shape=mxgraph.gcp2.website" parent="1" vertex="1">
          <mxGeometry x="144.67" y="321" width="100" height="97" as="geometry" />
        </mxCell>
        <mxCell id="BgLFl1xyS9uxn1Ycca5y-51" value="&lt;b&gt;&lt;font style=&quot;font-size: 15px&quot;&gt;https://cms.shopreeal.com&lt;/font&gt;&lt;/b&gt;" style="text;html=1;align=center;verticalAlign=middle;resizable=0;points=[];;autosize=1;" parent="1" vertex="1">
          <mxGeometry x="87.67" y="635" width="210" height="20" as="geometry" />
        </mxCell>
        <mxCell id="BgLFl1xyS9uxn1Ycca5y-52" style="edgeStyle=orthogonalEdgeStyle;rounded=0;orthogonalLoop=1;jettySize=auto;html=1;startArrow=classic;startFill=1;" parent="1" source="BgLFl1xyS9uxn1Ycca5y-53" target="BgLFl1xyS9uxn1Ycca5y-43" edge="1">
          <mxGeometry relative="1" as="geometry" />
        </mxCell>
        <mxCell id="BgLFl1xyS9uxn1Ycca5y-53" value="Video-Plugin" style="outlineConnect=0;fontColor=#232F3E;gradientColor=none;fillColor=#D05C17;strokeColor=none;dashed=0;verticalLabelPosition=bottom;verticalAlign=top;align=center;html=1;fontSize=12;fontStyle=0;aspect=fixed;pointerEvents=1;shape=mxgraph.aws4.lambda_function;" parent="1" vertex="1">
          <mxGeometry x="465.67" y="122" width="78" height="78" as="geometry" />
        </mxCell>
        <mxCell id="BgLFl1xyS9uxn1Ycca5y-54" style="edgeStyle=orthogonalEdgeStyle;rounded=0;orthogonalLoop=1;jettySize=auto;html=1;startArrow=classic;startFill=1;" parent="1" source="BgLFl1xyS9uxn1Ycca5y-55" target="BgLFl1xyS9uxn1Ycca5y-53" edge="1">
          <mxGeometry relative="1" as="geometry" />
        </mxCell>
        <mxCell id="BgLFl1xyS9uxn1Ycca5y-55" value="Video Dots&lt;br&gt;DynamoDB" style="outlineConnect=0;fontColor=#232F3E;gradientColor=#4D72F3;gradientDirection=north;fillColor=#3334B9;strokeColor=#ffffff;dashed=0;verticalLabelPosition=bottom;verticalAlign=top;align=center;html=1;fontSize=12;fontStyle=0;aspect=fixed;shape=mxgraph.aws4.resourceIcon;resIcon=mxgraph.aws4.dynamodb;" parent="1" vertex="1">
          <mxGeometry x="625.67" y="122" width="78" height="78" as="geometry" />
        </mxCell>
        <mxCell id="BgLFl1xyS9uxn1Ycca5y-56" value="" style="html=1;aspect=fixed;strokeColor=none;shadow=0;align=center;verticalAlign=top;fillColor=#3B8DF1;shape=mxgraph.gcp2.website" parent="1" vertex="1">
          <mxGeometry x="145.67" y="529" width="100" height="97" as="geometry" />
        </mxCell>
        <mxCell id="BgLFl1xyS9uxn1Ycca5y-57" style="edgeStyle=orthogonalEdgeStyle;rounded=0;orthogonalLoop=1;jettySize=auto;html=1;entryX=0.88;entryY=0.32;entryDx=0;entryDy=0;entryPerimeter=0;startArrow=classic;startFill=1;" parent="1" source="BgLFl1xyS9uxn1Ycca5y-41" target="BgLFl1xyS9uxn1Ycca5y-56" edge="1">
          <mxGeometry relative="1" as="geometry" />
        </mxCell>
        <mxCell id="BgLFl1xyS9uxn1Ycca5y-58" value="&lt;b&gt;&lt;font style=&quot;font-size: 15px&quot;&gt;https://api.shopreeal.com&lt;/font&gt;&lt;/b&gt;" style="text;html=1;align=center;verticalAlign=middle;resizable=0;points=[];;autosize=1;" parent="1" vertex="1">
          <mxGeometry x="85.67" y="232" width="200" height="20" as="geometry" />
        </mxCell>
        <mxCell id="BgLFl1xyS9uxn1Ycca5y-59" style="rounded=0;orthogonalLoop=1;jettySize=auto;html=1;startArrow=classic;startFill=1;" parent="1" source="BgLFl1xyS9uxn1Ycca5y-60" target="BgLFl1xyS9uxn1Ycca5y-55" edge="1">
          <mxGeometry relative="1" as="geometry" />
        </mxCell>
        <mxCell id="BgLFl1xyS9uxn1Ycca5y-60" value="Shopreeal Engine" style="outlineConnect=0;fontColor=#232F3E;gradientColor=none;strokeColor=#ffffff;fillColor=#232F3E;dashed=0;verticalLabelPosition=middle;verticalAlign=bottom;align=center;html=1;whiteSpace=wrap;fontSize=10;fontStyle=1;spacing=3;shape=mxgraph.aws4.productIcon;prIcon=mxgraph.aws4.ec2;" parent="1" vertex="1">
          <mxGeometry x="865.67" y="272" width="80" height="108" as="geometry" />
        </mxCell>
        <mxCell id="BgLFl1xyS9uxn1Ycca5y-61" style="edgeStyle=none;rounded=0;orthogonalLoop=1;jettySize=auto;html=1;startArrow=classic;startFill=1;" parent="1" source="BgLFl1xyS9uxn1Ycca5y-62" target="BgLFl1xyS9uxn1Ycca5y-75" edge="1">
          <mxGeometry relative="1" as="geometry" />
        </mxCell>
        <mxCell id="BgLFl1xyS9uxn1Ycca5y-62" value="" style="outlineConnect=0;dashed=0;verticalLabelPosition=bottom;verticalAlign=top;align=center;html=1;shape=mxgraph.aws3.bucket_with_objects;fillColor=#E05243;gradientColor=none;" parent="1" vertex="1">
          <mxGeometry x="474.0282089552239" y="524.1111111111111" width="71.64179104477611" height="72.88888888888889" as="geometry" />
        </mxCell>
        <mxCell id="BgLFl1xyS9uxn1Ycca5y-63" value="x" style="shape=image;aspect=fixed;image=data:image/svg+xml,PHN2ZyBpZD0iTGF5ZXJfMiIgeG1sbnM9Imh0dHA6Ly93d3cudzMub3JnLzIwMDAvc3ZnIiB2aWV3Qm94PSIwIDAgMzYxOC42IDM2MTguNiIgd2lkdGg9IjM2MTguNiIgaGVpZ2h0PSIzNjE4LjYiPjxzdHlsZT4uc3Qwe2ZpbGw6IzIyMn0uc3Qxe2ZpbGw6IzAwZDhmZn0uc3Qye2ZpbGw6bm9uZTtzdHJva2U6IzAwZDhmZjtzdHJva2Utd2lkdGg6MTQ0Ljc0NTY7c3Ryb2tlLW1pdGVybGltaXQ6MTB9PC9zdHlsZT48cGF0aCBjbGFzcz0ic3QwIiBkPSJNMCAwaDM2MTguNnYzNjE4LjZIMHoiLz48Y2lyY2xlIGNsYXNzPSJzdDEiIGN4PSIxODA2LjUiIGN5PSIxODA3LjEiIHI9IjMwMi42Ii8+PHBhdGggY2xhc3M9InN0MiIgZD0iTTE4MDYuNSAxMTkxLjljNDA2LjIgMCA3ODMuNiA1OC4zIDEwNjguMSAxNTYuMiAzNDIuOCAxMTggNTUzLjYgMjk2LjkgNTUzLjYgNDU4LjkgMCAxNjguOC0yMjMuNCAzNTguOS01OTEuNSA0ODAuOC0yNzguMyA5Mi4yLTY0NC42IDE0MC40LTEwMzAuMiAxNDAuNC0zOTUuNCAwLTc2OS43LTQ1LjItMTA1MS4yLTE0MS40LTM1Ni4xLTEyMS43LTU3MC42LTMxNC4yLTU3MC42LTQ3OS44IDAtMTYwLjcgMjAxLjMtMzM4LjIgNTM5LjMtNDU2IDI4NS42LTk5LjUgNjcyLjMtMTU5LjEgMTA4Mi41LTE1OS4xeiIvPjxwYXRoIGNsYXNzPSJzdDIiIGQ9Ik0xMjcxIDE1MDEuM2MyMDIuOS0zNTEuOSA0NDItNjQ5LjcgNjY5LTg0Ny4yIDI3My41LTIzOCA1MzMuOC0zMzEuMiA2NzQuMS0yNTAuMyAxNDYuMiA4NC4zIDE5OS4zIDM3Mi44IDEyMSA3NTIuNy01OS4yIDI4Ny4yLTIwMC40IDYyOC41LTM5My4xIDk2Mi42LTE5Ny41IDM0Mi41LTQyMy43IDY0NC4yLTY0Ny42IDg0MC0yODMuMyAyNDcuNy01NTcuMyAzMzcuMy03MDAuNyAyNTQuNi0xMzkuMi04MC4zLTE5Mi40LTM0My4zLTEyNS43LTY5NSA1Ni40LTI5Ny40IDE5OC02NjIuMSA0MDMtMTAxNy40eiIvPjxwYXRoIGNsYXNzPSJzdDIiIGQ9Ik0xMjcxLjUgMjExOS44Yy0yMDMuNS0zNTEuNi0zNDIuMS03MDcuNC0zOTkuOS0xMDAyLjctNjkuNi0zNTUuOC0yMC40LTYyNy45IDExOS44LTcwOSAxNDYuMS04NC42IDQyMi41IDEzLjUgNzEyLjUgMjcxIDIxOS4zIDE5NC43IDQ0NC40IDQ4Ny41IDYzNy42IDgyMS4zIDE5OC4xIDM0Mi4yIDM0Ni42IDY4OC44IDQwNC4zIDk4MC41IDczLjEgMzY5LjIgMTMuOSA2NTEuMy0xMjkuNCA3MzQuMi0xMzkuMSA4MC41LTM5My41LTQuNy02NjQuOS0yMzguMi0yMjkuMi0xOTcuMy00NzQuNS01MDIuMS02ODAtODU3LjF6Ii8+PC9zdmc+;" parent="1" vertex="1">
          <mxGeometry x="465.67" y="516" width="35.55555555555556" height="35.55555555555556" as="geometry" />
        </mxCell>
        <mxCell id="BgLFl1xyS9uxn1Ycca5y-64" value="" style="endArrow=classic;html=1;" parent="1" source="BgLFl1xyS9uxn1Ycca5y-78" target="BgLFl1xyS9uxn1Ycca5y-60" edge="1">
          <mxGeometry width="50" height="50" relative="1" as="geometry">
            <mxPoint x="72.67" y="672" as="sourcePoint" />
            <mxPoint x="122.67" y="622" as="targetPoint" />
          </mxGeometry>
        </mxCell>
        <mxCell id="BgLFl1xyS9uxn1Ycca5y-65" style="rounded=0;orthogonalLoop=1;jettySize=auto;html=1;startArrow=classic;startFill=1;" parent="1" source="BgLFl1xyS9uxn1Ycca5y-45" target="BgLFl1xyS9uxn1Ycca5y-62" edge="1">
          <mxGeometry relative="1" as="geometry" />
        </mxCell>
        <mxCell id="BgLFl1xyS9uxn1Ycca5y-66" value="&lt;font style=&quot;font-size: 10px&quot;&gt;cms-api.&lt;br&gt;shopreeal.com&lt;/font&gt;" style="text;html=1;align=center;verticalAlign=middle;resizable=0;points=[];;labelBackgroundColor=#ffffff;" parent="BgLFl1xyS9uxn1Ycca5y-65" vertex="1" connectable="0">
          <mxGeometry y="-7" relative="1" as="geometry">
            <mxPoint y="-18" as="offset" />
          </mxGeometry>
        </mxCell>
        <mxCell id="BgLFl1xyS9uxn1Ycca5y-67" value="" style="endArrow=classic;html=1;" parent="1" source="BgLFl1xyS9uxn1Ycca5y-49" target="BgLFl1xyS9uxn1Ycca5y-60" edge="1">
          <mxGeometry width="50" height="50" relative="1" as="geometry">
            <mxPoint x="72.67" y="672" as="sourcePoint" />
            <mxPoint x="122.67" y="622" as="targetPoint" />
          </mxGeometry>
        </mxCell>
        <mxCell id="BgLFl1xyS9uxn1Ycca5y-68" value="" style="endArrow=classic;html=1;" parent="1" source="BgLFl1xyS9uxn1Ycca5y-62" target="BgLFl1xyS9uxn1Ycca5y-78" edge="1">
          <mxGeometry width="50" height="50" relative="1" as="geometry">
            <mxPoint x="72.67" y="671" as="sourcePoint" />
            <mxPoint x="122.67" y="621" as="targetPoint" />
          </mxGeometry>
        </mxCell>
        <mxCell id="BgLFl1xyS9uxn1Ycca5y-69" style="edgeStyle=none;rounded=0;orthogonalLoop=1;jettySize=auto;html=1;entryX=0.88;entryY=0.412;entryDx=0;entryDy=0;entryPerimeter=0;startArrow=classic;startFill=1;" parent="1" source="BgLFl1xyS9uxn1Ycca5y-70" target="BgLFl1xyS9uxn1Ycca5y-50" edge="1">
          <mxGeometry relative="1" as="geometry" />
        </mxCell>
        <mxCell id="BgLFl1xyS9uxn1Ycca5y-70" value="" style="outlineConnect=0;fontColor=#232F3E;gradientColor=#945DF2;gradientDirection=north;fillColor=#5A30B5;strokeColor=#ffffff;dashed=0;verticalLabelPosition=bottom;verticalAlign=top;align=center;html=1;fontSize=12;fontStyle=0;aspect=fixed;shape=mxgraph.aws4.resourceIcon;resIcon=mxgraph.aws4.cloudfront;" parent="1" vertex="1">
          <mxGeometry x="304.67" y="322" width="78" height="78" as="geometry" />
        </mxCell>
        <mxCell id="BgLFl1xyS9uxn1Ycca5y-71" value="" style="html=1;aspect=fixed;strokeColor=none;shadow=0;align=center;verticalAlign=top;fillColor=#3B8DF1;shape=mxgraph.gcp2.website" parent="1" vertex="1">
          <mxGeometry x="145.67" y="121" width="100" height="97" as="geometry" />
        </mxCell>
        <mxCell id="BgLFl1xyS9uxn1Ycca5y-72" style="rounded=0;orthogonalLoop=1;jettySize=auto;html=1;startArrow=classic;startFill=1;" parent="1" source="BgLFl1xyS9uxn1Ycca5y-78" target="BgLFl1xyS9uxn1Ycca5y-70" edge="1">
          <mxGeometry relative="1" as="geometry" />
        </mxCell>
        <mxCell id="BgLFl1xyS9uxn1Ycca5y-73" value="&lt;b&gt;&lt;font style=&quot;font-size: 15px&quot;&gt;https://stream.shopreeal.com&lt;/font&gt;&lt;/b&gt;" style="text;html=1;align=center;verticalAlign=middle;resizable=0;points=[];;autosize=1;" parent="1" vertex="1">
          <mxGeometry x="74.67" y="421" width="220" height="20" as="geometry" />
        </mxCell>
        <mxCell id="BgLFl1xyS9uxn1Ycca5y-74" style="edgeStyle=none;rounded=0;orthogonalLoop=1;jettySize=auto;html=1;startArrow=none;startFill=0;" parent="1" source="BgLFl1xyS9uxn1Ycca5y-78" target="BgLFl1xyS9uxn1Ycca5y-53" edge="1">
          <mxGeometry relative="1" as="geometry" />
        </mxCell>
        <mxCell id="BgLFl1xyS9uxn1Ycca5y-75" value="CMS UserPool" style="outlineConnect=0;fontColor=#232F3E;gradientColor=#F54749;gradientDirection=north;fillColor=#C7131F;strokeColor=#ffffff;dashed=0;verticalLabelPosition=bottom;verticalAlign=top;align=center;html=1;fontSize=12;fontStyle=0;aspect=fixed;shape=mxgraph.aws4.resourceIcon;resIcon=mxgraph.aws4.cognito;" parent="1" vertex="1">
          <mxGeometry x="470.03000000000003" y="681" width="78" height="78" as="geometry" />
        </mxCell>
        <mxCell id="BgLFl1xyS9uxn1Ycca5y-76" value="&lt;span style=&quot;white-space: nowrap&quot;&gt;CMS&lt;/span&gt;&lt;br style=&quot;white-space: nowrap&quot;&gt;&lt;span style=&quot;white-space: nowrap&quot;&gt;React app&lt;/span&gt;" style="text;html=1;strokeColor=none;fillColor=none;align=center;verticalAlign=middle;whiteSpace=wrap;rounded=0;" parent="1" vertex="1">
          <mxGeometry x="530.67" y="590" width="40" height="20" as="geometry" />
        </mxCell>
        <mxCell id="BgLFl1xyS9uxn1Ycca5y-80" value="Shopreeal AWS Achitecture" style="text;html=1;align=left;verticalAlign=middle;resizable=0;points=[];;autosize=1;fontSize=24;fontStyle=4" parent="1" vertex="1">
          <mxGeometry x="78.67" y="50" width="310" height="30" as="geometry" />
        </mxCell>
        <mxCell id="BgLFl1xyS9uxn1Ycca5y-78" value="" style="outlineConnect=0;dashed=0;verticalLabelPosition=bottom;verticalAlign=top;align=center;html=1;shape=mxgraph.aws3.bucket_with_objects;fillColor=#E05243;gradientColor=none;" parent="1" vertex="1">
          <mxGeometry x="592.67" y="322" width="80" height="80" as="geometry" />
        </mxCell>
        <mxCell id="BgLFl1xyS9uxn1Ycca5y-79" value="Video Store" style="text;html=1;strokeColor=none;fillColor=none;align=center;verticalAlign=middle;whiteSpace=wrap;rounded=0;" parent="1" vertex="1">
          <mxGeometry x="656.67" y="398" width="40" height="20" as="geometry" />
        </mxCell>
        <mxCell id="BgLFl1xyS9uxn1Ycca5y-81" value="API Gateway" style="text;html=1;strokeColor=none;fillColor=none;align=center;verticalAlign=middle;whiteSpace=wrap;rounded=0;fontStyle=1" parent="1" vertex="1">
          <mxGeometry x="300.51" y="101" width="86.33" height="20" as="geometry" />
        </mxCell>
        <mxCell id="BgLFl1xyS9uxn1Ycca5y-82" value="API Gateway" style="text;html=1;strokeColor=none;fillColor=none;align=center;verticalAlign=middle;whiteSpace=wrap;rounded=0;fontStyle=1" parent="1" vertex="1">
          <mxGeometry x="621.5" y="501" width="86.33" height="20" as="geometry" />
        </mxCell>
        <mxCell id="BgLFl1xyS9uxn1Ycca5y-83" value="Lambda" style="text;html=1;strokeColor=none;fillColor=none;align=center;verticalAlign=middle;whiteSpace=wrap;rounded=0;fontStyle=1" parent="1" vertex="1">
          <mxGeometry x="464" y="218" width="86.33" height="20" as="geometry" />
        </mxCell>
        <mxCell id="BgLFl1xyS9uxn1Ycca5y-84" value="DynamoDB" style="text;html=1;strokeColor=none;fillColor=none;align=center;verticalAlign=middle;whiteSpace=wrap;rounded=0;fontStyle=1" parent="1" vertex="1">
          <mxGeometry x="621.51" y="101" width="86.33" height="20" as="geometry" />
        </mxCell>
        <mxCell id="BgLFl1xyS9uxn1Ycca5y-85" value="EC2" style="text;html=1;strokeColor=none;fillColor=none;align=center;verticalAlign=middle;whiteSpace=wrap;rounded=0;fontStyle=1" parent="1" vertex="1">
          <mxGeometry x="862.5" y="252" width="86.33" height="20" as="geometry" />
        </mxCell>
        <mxCell id="BgLFl1xyS9uxn1Ycca5y-86" value="DynamoDB" style="text;html=1;strokeColor=none;fillColor=none;align=center;verticalAlign=middle;whiteSpace=wrap;rounded=0;fontStyle=1" parent="1" vertex="1">
          <mxGeometry x="960" y="501" width="86.33" height="20" as="geometry" />
        </mxCell>
        <mxCell id="BgLFl1xyS9uxn1Ycca5y-87" value="Lambda" style="text;html=1;strokeColor=none;fillColor=none;align=center;verticalAlign=middle;whiteSpace=wrap;rounded=0;fontStyle=1" parent="1" vertex="1">
          <mxGeometry x="781.51" y="620" width="86.33" height="20" as="geometry" />
        </mxCell>
        <mxCell id="BgLFl1xyS9uxn1Ycca5y-88" value="S3" style="text;html=1;strokeColor=none;fillColor=none;align=center;verticalAlign=middle;whiteSpace=wrap;rounded=0;fontStyle=1" parent="1" vertex="1">
          <mxGeometry x="610" y="301" width="86.33" height="20" as="geometry" />
        </mxCell>
        <mxCell id="BgLFl1xyS9uxn1Ycca5y-89" value="S3" style="text;html=1;strokeColor=none;fillColor=none;align=center;verticalAlign=middle;whiteSpace=wrap;rounded=0;fontStyle=1" parent="1" vertex="1">
          <mxGeometry x="478.34000000000003" y="501" width="86.33" height="20" as="geometry" />
        </mxCell>
        <mxCell id="BgLFl1xyS9uxn1Ycca5y-92" value="Cloudfront" style="text;html=1;strokeColor=none;fillColor=none;align=center;verticalAlign=middle;whiteSpace=wrap;rounded=0;fontStyle=1" parent="1" vertex="1">
          <mxGeometry x="301.5" y="301" width="86.33" height="20" as="geometry" />
        </mxCell>
        <mxCell id="BgLFl1xyS9uxn1Ycca5y-93" value="Cloudfront" style="text;html=1;strokeColor=none;fillColor=none;align=center;verticalAlign=middle;whiteSpace=wrap;rounded=0;fontStyle=1" parent="1" vertex="1">
          <mxGeometry x="300.51" y="504" width="86.33" height="20" as="geometry" />
        </mxCell>
        <mxCell id="BgLFl1xyS9uxn1Ycca5y-94" value="Cognito" style="text;html=1;strokeColor=none;fillColor=none;align=center;verticalAlign=middle;whiteSpace=wrap;rounded=0;fontStyle=1" parent="1" vertex="1">
          <mxGeometry x="510" y="661" width="86.33" height="20" as="geometry" />
        </mxCell>
        <mxCell id="BgLFl1xyS9uxn1Ycca5y-95" value="GoDaddy" style="text;html=1;strokeColor=none;fillColor=none;align=center;verticalAlign=middle;whiteSpace=wrap;rounded=0;fontStyle=1" parent="1" vertex="1">
          <mxGeometry x="149.51" y="101" width="86.33" height="20" as="geometry" />
        </mxCell>
        <mxCell id="BgLFl1xyS9uxn1Ycca5y-96" value="GoDaddy" style="text;html=1;strokeColor=none;fillColor=none;align=center;verticalAlign=middle;whiteSpace=wrap;rounded=0;fontStyle=1" parent="1" vertex="1">
          <mxGeometry x="144.67" y="302" width="86.33" height="20" as="geometry" />
        </mxCell>
        <mxCell id="BgLFl1xyS9uxn1Ycca5y-97" value="GoDaddy" style="text;html=1;strokeColor=none;fillColor=none;align=center;verticalAlign=middle;whiteSpace=wrap;rounded=0;fontStyle=1" parent="1" vertex="1">
          <mxGeometry x="149.51" y="509" width="86.33" height="20" as="geometry" />
        </mxCell>
        <mxCell id="waG4lvG67HVM-hm1_P78-1" value="" style="shape=image;verticalLabelPosition=bottom;labelBackgroundColor=default;verticalAlign=top;aspect=fixed;imageAspect=0;image=data:image/png,iVBORw0KGgoAAAANSUhEUgAAAR8AAACvCAYAAADE6tqMAAAgAElEQVR4Ae1dB3wUxfffvbtcLh1IgBAi0ntTKTZABGmKiBCEhE6QJliwUP2BKCB2EAgdhCTS/nQEBBE7vfdQlBYIpJNcLne3/+9csmFzubvs7dXczX5y2d2pb97sfve9N29mGI7jvsWvLkMPygEv4QCe9wD8hl+4cOHQ888/z0VFRXEHDx5EkOHYh/8T8WuDX6CXsMSpzQRf6+L3LUMunFozrYxywE04MHLkyM/r1auX37RpUy4yMtIAQgCkHXgnhuJXzk3I9EgyCO7IWJa95JGto42iHCiFA3j2r/n4+OTjx1SuXJk5f/4807Fjx9bTp09vlZ2d3bSU7DTaBg4Q3JHZkJ9mpRwo6xzIRQP8+Eb4+voSEApNTEwc0axZs3FxcXGv83H0bH8OUPCxP09piWWEA/j6sqZIDQwMZMqXL99rzpw5Xz755JOfbtq0qbqpdDTMNg5Q8LGNfzR32eaA3BL5AKAawKfJY8eOXdqlS5e+ltLSOOs5QMHHep7RHB7CARg9TUo+xs2DKtbh1q1bi6pWrboARupWxvH0XhoHKPhI4xvN5QEcEAs+pKlKpTI4PDx81B9//BFfq1atzz7//PMGHsAClzaBgo9L2U8rL2scgFG6drly5SYtX748sXHjxuN37tzpW9ba4C70UvBxl56gdJQpDsAo3QxA9OVbb7217Jlnnqlfpoh3E2Ip+LhJR1AyyiYHYJSOefjw4ewKFSo8VjZb4DqqKfi4jve0Zg/hAJwUe1SqVGm0hzTHac2g4OM0VtOKPJkDCoWi67Rp06p5chvt3TYKPvbmKC3PWznQQK/X0xEwK3qfgo8VzKJJKQcscEApk8lCLcTTKCMOUPAxYgi9pRywgQMqG/J6XVYKPl7X5bTBDuQAfZ+sYC5llhXMokkpByxxADYfUdM1LJXhTXEUfLypt2lbKQfciAMUfNyoMygplAPexAEKPt7U27StlANuxAEKPm7UGZQUygFv4gAFH2/qbdpWygE34gAFHzfqDEoK5YA3cYCCjzf1Nm0r5YAbcYCCjxt1BiWFcsCbOEDBx5t6m7aVcsCNOEDBx406g5JCOeBNHKDg4029TdtKOeBGHKDg40adQUmhHPAmDlDw8abepm2lHHAjDlDwcaPOoKRQDngTByj4eFNv07ZSDrgRByj4uFFnUFIoB7yJAxR8vKm3aVspB9yIAxR83KgzKCmUA97EAQo+3tTbtK3FOIDdJord0xvncoBy37n8prVRDlAOFHKAgg99FLyWAxzH0QXfXdj7FHxcyHxatWs5gN0mFK6lwLtrdzr4TJgwoXrlypWH1qxZcxb5hYeHD5k8efJj3t0NllvfL6FDZfKznIrGWssB2HwCrM3jSemrV68eTn6uapPTkH/+/PkN5s2b13fz5s3dIyMjn+AbXL58eWbDhg2H6tWrt3HSpEnLBg0a9ICP8+bzzstrghNPr47mGLaDTqOvTXjRbmHrJL2W3Texy8cJ3ep0y/Rm/hi3feTIkdU3bdr0YlhYWB0Sd//+/cs9e/b8JS4u7rpxWsG9y148AQ1OvcR7WPvLL798zd/f/3mVSlWDVB4cHHzt3r17f4JfWxcuXHjRWQTJHV3Rtm3bwm7cuDFuz54909HIPkqlsopxnQirit9Lu3btat6oUaO8//7775xxGm+675vYqffZB6c+02m4dzgd1xBtD9frmfBAlaqhXKd4ZV/Sz82f6dU678yW817NJ/JMfP755w0uXLgwNiUl5WN8yEYoFIrnyQ/PWo/r16+38/HxqQrJ+v7evXvvCZ8h2Hvq7Ny5c8i///5bC+mFUZKudTod06BBg20HDhw4JqkAB2ci7+GlS5fG7t+/fzr4NBBtro8qiTRdWS6X1we/Xrp69eoLAQEBEZ999lkyeHPfwSQxDjW49e7dO+r333+PhZrVCQ+BqLZoNJpMPEjxL7/88sply5YdEpXJQxJ9uG1kq7/TDw6uHlApBk0K1mq4opYBfAxHfp6eycvVMzIZm5mSdzu+ZVi7lfNi4ryKT4QRCQkJYVOmTInFc9UvMDCwaQF3TP9/+PDhOYDNtk8++WRvnz59riJVJfx6jh49evyff/4pF/tsmi69IDQvL495/fXX30QdSyylc0Vcly5dos6cORNboUIFUe9hWlraqaCgoMRPP/10affu3R0GQg4Bn2nTpj0JFWtYREREf0g0wVIYrtVqk27evLl+7Nixa1CeR3/h5/7zZcPf7qzt78+GRnF6zqBiCYGH8I8HH3Kdk6UjJ8MBEEpKzrm5PqbR6DXjOo7zaD7xbX7++eejbt++HYsveCc+TMwZL9UdPJNJX331lU96evpT48eP9/H19RWTtdQ07gg+H374YSt8wAejzTFS3sO7d+/uefrpp5fCLLK+VAZISGBX8CFfIyD/m/jK9MfXqIEEekpkyc7OPo3yEgBAS6Ojox2GwiUqdkJAwpGEsF9SfojVc2w0wKYJqRLgU1SzEICE4FMk/cgLuo/4yqVpsk+HqoIShjYburR7C8/iE8+QYcOGtYJqPhhfcEkvEyknPz+fwTNlKJLYG+11uBP4wM7VcM6cOf2hWkVBgjF8zKS2k2giqampa4YPH74M76BdVUq7gQ8R7aBTWv01EssUfLX21K1bdykePoegsFg67JVuwJYuUbnc/dgANszw9eYKMUcM+Oi0HEMASJvPMTIBABHa0vKz90T6RSxNGLLJI/hE2gQDacPvvvuuf0hISBQkFZteJlKeIw53AB9i14ENLBZSYTSA1fAxs1dbAdjnWZZd88UXXyy2lypms8EZowytoB5NhsFtCqQdYhx1yOHn51cLonJnDI9W69+/f8qRI0duOaQiBxf69V+TWwW+op4coAyYopIHNBRKNIaqC0FIKPWQcB6cDNew/7D4bBAQYmUF3w9yTw4/ubKWjtV0Lveib7VBI4am/L72zzLJJ9IW8jKdO3du3KFDh4iRtBe+5BVIuDserjY4E/vq999//xnsVyNgNLa7WwbUtor4dcCIYvPWrVvnJSUl2aziSwYf8jU6evTou5BIpuLB6AyLuX2UZwtPFqkDVvmW165da4/OrgKUv/PTTz+lWMjiNlFrjsU1lHW5+26mNmOqSuHfGYQZ+GUOfIhEo39k2ikCHwI45DCADi55ACLgxAMQrn0DfYJaPshPbh/cXlll6qRP72xfsb1M8MnQOPwjkvSKFSs+Q3+PwENv95eJr8deZ1eBD7Gvnj59egrUoyl4DxviHbFXk0yWIxQC3njjjZTjx49L/rhZTSn5GgF0xh07dmx6pUqVXPI1Il/AcuXKtcFIRdvQ0NCQlStXXkhMTMwxyS0XB+6/uC0sp2PSuBTdzelK1r8XyCn29RaCjzmVizSBl3xgYIZdqKBRBGz4cD4ND0CGez1TIVgV0ubQrYNtH+8eGfL99LgLiYvdk08FLWIYYte5c+eOQZKGmuUwSZqvz15nZ4MPsa/+888/78DUMQ3vYTdnfPx5XvFCANwUbBICCoV1vljLZ37IjgydW07p3Fh3tQd9sG9w1LWsM7GhgZU6GatRPIeI3YYcPIiYAyAhSPHSj17HGfJp1Bh6L7T9kLKMJ2vzcQ+06XsifR5zS3vQ3LlzG3777bf94fzmtnYdwltzhzNtPlJH+8zRbms4GRSCw2KCtUPzoiQfMmR35coVt/0aCUVB+G6kQCKSLAra2hEkP2/XkSuZKUrGv6GxCiWsQwgqhvACLDJcmlK7SAQv+RDA4qUfAkTG9h9DIfjHh/vLVLU4RX7n0G6h1QYM7e8W9qBC57dx6LPpkHRcIknzfLLl7AzJh0iF8ESeDLunQ+2r1vKBqMWgqePatWubP/vss6LtQRbBhwzZweD3LjxFnWbXsbbhfHpeFIS3a3sYvqvMmjXrzvbtzrVz8Hadh2zW1ADfArsOARAhiPD08mch+JiTekhaXjIyXBeqXUVhACFSDg8yPCjxdRjuCw3TAC7fALmqZSrsQaFdQ6tM+uBjl9mDeLsO+qtM2HV4fpo6OxJ8iH0Vdp13MeQ9FeYGp9hXTbWxtDD0o2FQCLyoBv+8UoUAk2rX7t27K0HaGZqVlWX3IbvSGmCveKhip2H1T/jmm2+WdOzY0aHzxYhdJ/G/hbGpD1OiQwMrFhviJOqWQsky9lK7eJWL8IlIO+Qg4ELUN3LPq1gk3Jz6ReJ429D9/IzTlVUhCSNaTljSsYFj+UTqJQcZIV2/fr1k57eCUtzrvyPULoEXdzRe7GLPlXu1viQ1wI4k/Nb/73//W4P+NjkyxsKB7wWM3/9KsmMUSfXRRx/1hgg8ELPNXypZZNkLgZfmboiCcevWrdvsCOrH7x/S+9+M08OJXcdU+eZAh08rtPlYknyEEhIPQELwIdd8WTwAGYMPqZOP48GHD7unTt9d1adaXOKQjQ7hE6mHTC6GXaA/Bgn6uKu/DqFTymFv8GnTpk3vW7duDccIlsnnSgqNrsgDIeAUpLW10ERWd+7c+QZPA3CnKgGf1bm5uUdmz56txNBmSzT2ZfgK+POJPOEMr9Z7EFnjoqKiZkMSyrVHm746OK3uX7d3jA4LqjgI5ZUzV6a9JR9SjznwIQDFAxIPMsYAxIeTcowBCEEp9/LSFr8Y9sqX03pOSydp7HFgkqLv1KlT38KDOADPVzN7lOluZdgLfMaMGVN3y5Yto+HFPQjvodnnyt3ab4ke4lWO9+9XqNmbPvjgg7/hLEwMB21ZTLrj2rZtmwuLtR9EO0tllPk4tHUJjJrvHzx40KblKPpsbtm9fFDF9xmOaVsaU5wJPoQWXvoh1zzQWAlAjELBrLulzpz++9CDJsVlUrbYo1evXvXB7ykYISWTZT32sAf4YA5Wd4DO+5AKS32uyiIjCY/gKHzw448/foDpGjVka9asYfBF8njgIZ0FG9BwzJh/15aOe3x61fbJNxWfiAEevp7SVC8+nSW1i09T2pkHHGE6ocpGwnnpiFwXGa3JTeGh1TJ9IvxCZtacFlGND5Nyxov02OXLl2d7OvBI4Y2JPO2rVKnyiacCD2kv2sbgWWg9ceLEbvBabyCDnYeBb4UJXnhmENraHZb4SKmtqx76+EA2V9E8J1PgflxKYcTgLObgR6tIWnN5eJVLTHlCkDEGIFP5hek1ufoe5WVVRplKJzYMzm+joTr0EJvem9NBFRmI9jf3Bh4AZJlff/2Vcfoyqm7A3MYYCpTkOTt375cNYSNry6m0zL+3xGtuYiUfIW/M5ZErSgcyofQjBBRh+cJwofTDh6c+yCPJu677Y50k6Qf2tWoAnq7COum1aQ4QB0sM+nikqmW6xZgAnZbmleDjCwAJM8cUS+F6hq2JePJj/DkVk3lfayl5UZw5KaYogYkLKXlMFFMsyFj64YGGJOIBiAAXWayM0Rq+Sw3yZfmSlkbBy9SA/IoRQG9McgAOekXPlckEHhpoeMI8tG1mmwXwUZmNtBghLxp9yGHVzK2ULIupHRFpjdrF1y8EGUsARNKTtJmpRaCqlDGyUL4ca87gMcmntCaPt6YFr4qeK2/ige2L10rgFhG5MAs3mWSFa3Y4hl8llCI9C77IkkBXxnFKRg6pQPcoe/o9LVOukmU2mlOhjFsgxuBM1C6pAMSrYwSAjEfAeFoMUg9/U3CWBNTgsaR8xau2/o5fKKwsjdyCV04HacInjP6SVdV8MTAADdnHembbmOPRW2RjQWKyo7FJaPQCOBxFX7x48VXyg+NZNPIuACAliSnDHmnwpSndcGKiIg5igHHwnQdZZr2X+bRiVSh7G5z5+vmzUALiw8iZDyeqV3ZGcUO6VKDGnlgleCWs097X5GUiH7X33nuPGTp0KIMpQQwZ2i0jh9N4BZ+bPPBmQ79+/cb+/PPP/TC3LqZVq1Yz4dB4lPjjOPOw/Mm2EyV4CK5gfH8DHKjWYpjtONYBEZZ8GDeJS5cufWLmzJlvYDSqN4bkagkTuMs1p9ebBK3L11OZBnXNaydiJR9hO83lkSr5CMsm16akn9zs4sBD0kEaM9lmEmfpgB1DUj5LZZqKIy8MJlsyI0aMYDAlqGjkFgvOMXDtZzC/j8GoG+OKL7spek2FAagdzive0Q9rMv8AJ8bEGjVqqLEWEE/OeqyLtRa7VvTBKoi9oInU5yMceXYo4qLBOXgw4rAEQDRWO5xAgMdcY2JjY49j644JPXr0iAYKx5G85tK6MlyTb2KUC2qY+iF0GTOHWMlHmF1KHmF+4bVQTeOlHBIvtP+Q8FwLbRCW5y7XmDrDYL83w7AteZGELiNw2GOWLFnC4EUj+1IZpCJ3odvZdEAivAjwnbF8+fI3sRj8CgI8xjR07dr11B9//DEFe+fFQor8FgLDf8Zp7H3vMPBBg09g8erR2LNrFGbHHxJLOND3UHJy8ig8PKNJGWLzuTrdtVtpTiFBCCRSKzQFQCZsPVKLd3g+omKRLzl2ZmAwZ88AQOYqhUrBYPsmZvr06QYAInm95QCApONdWvD222/HYgHAjzt16nS5tLZDCPgT5pB3ITC8CXBPIHx21OEQ8AHR/2AXi/cxQXWVVMKxUPwqLJP6PilLahkOy0eMzsYHpB9zjofmVCjjIsQanI3zibk3Bi0hAJEpGQapR4F28T8xhTo5DbHhEFsOsen8/fffDF4m0RQQNQzLUjDYldNQhiNfKtFEOTAhtIfzmJz6Ac5jAD5/WFsVBIbdmJP3FoSATyEE2BWBcnJyGGwOWtKAai2RxukBFpkbN26ch87eZxxn7T0c1faRskiZ1uZ1SHrhgIAJADLneChWhXK0wdkcT7If4tkioCM8jO+FcS64xgvAwF7BnDp1qphtxxpSiFqGwQ4GH0WDtETAzBMPSHe5WOh9HrY+XmpL+5o2bZoGW9D0CRMmkAEhW4oqylsoeeZig0XGrgZn8jVp0qTJAYi6PxbVZuMFKQtl9gWCd3c7o6EQgAqH34n04x9cfI02sZKPGFbZYnAm0g/Jzx9C6YcPc8czAQnsNGoADnvQR+xERF3r1q0bg+fKrY3R1raX8ArS3QEA9VpzeWdum1n/7I0TLwSpAmvD6YLJzc+5ElG+yoFZfb4qMZEYo51ajA7HA8w6gVcNpL6DwAZi/90B2g5j00YNVh9tYXe1C2LaORBs9Bk1x4bSw0lZ1atXP4cRgdITuzJFIRCZkn7ESj7OIN9Y/TJIPc6o2IY6yEfNEb5gZckXSCz7CK+wfg7ZYyvVVJ7Bi2NGXrhzdlmgKmghFt4dj1XAx6t8/BakZWcsGbQoepSpPCjrMCZlHzUVJyYMUtNe4MIIbPIwENLYF5BAv0O+ZXYHHwyx3hNDkJVpHFGmlSSISF4IQGKnXYgosUQSY/AokUBEAF8GfxaRhSYpWxwwubPvoEUxY3wVqml+CtWzxs0BCD0LEPrfoCUxY4zjCu//MxNuNhgq1nn49k3GMrAxsOGuad++fdEoGwDtV7uDDyhxxBC5I8o0yzRLEVpfqC28UdaUXQQARKZdCFUt4bWlsh1pcObrzc0rmjrBCK/5eHr2CA4UveR8a2ZsnVFDpVT1wb2lPdAqqxSqPqOWj6rJ5+PPECpE213JFssYGFgAR8b+WFN9Juw7JoUHR4BPSU81vgUSz0BJu5cpkZSS2cwA0OWbjz4+YtUuZxic/XwVBtApC+pWSWbTEDEcwPtSwkbhw8kaYg2qJ0rNjzRKOdfQOB3MHqVa54nKh8GhPbCpxT548GAMfK8s7u1ud/Ahq/jb+3B7e48JSYjNUBmG3gnwiJV8xPBNaDAWk56moRwgHOBYLhinIBHcCNLLZKbSWVx+GHad03DmnAibTgwcGdeLqMf+Q+1iKvXoNLwkhCUpUm5qDE0VK/l4NF9o41zKAZZjidpU+jIMHAMvTK6EigW1i4jyJYzYZJcKAM8sTG3pCw/p2d27d38k8pfSYrtLPqXU5xbRWMfZoXT4a/0N5RPHPXsbn6mR2KFd5xGFQ+165E9R2CJOn38WapfZ6U1FDWeZ4zJOebrons/PcWdwWeSsCBXrOlSsubDnRGNa1CRz2+MYlyO890rwETLAEdfCOVK3r5WqKheR4AyDc1Fl9MJjOQAzhdAd1tDOiT2nXc/TqRMBQHctNDwtV6v+8buB3/1nnAb7rF2Ev88igM5nmHw6pX79+oMwX/Nt7HpDJoZLOuzqZCiJgjKWKZeFVFpozvOXBZSgnth6jI8Ht/OZ0AifUm0/xODMA5A5WxGVfIy5K/3eg+d5mRTtV74ZHxezsI8u0DdoCLj2jJBzWE3lfHZeVlzCqHULhOHCa0xP2Yl78jM4aQrjpFxTyUcC1/wCfA25cvQPGeHPsPRowfKjxUpNuaUpFXiKZbBwQw3OFphDowwcgNZVwxwr4ketWxISGDokL1+NXVy4Fdi9LVGtVX8qZ9mhAJ655vI5IpxKPtZw1ffRCCYPQLkPH6lVpqQevvjU5HymQngJaZiPdu2ZACZvKHctJSZrJy79ZDIiPUrnANmeBjtDtIaK1B4gtN9Ujjl95lxEOPm59KCSj43sJyBEfv75JiXdotJT7+YX29CvKMLKC4epXSYkNitJc1hy8kJhbhFD9pizx0GAbM6cOQwMpR41r4vwhgA1lrGp+fLLLw/HBFq3XJSP70MKPjwnbDgT6YfNLn0Z3vtQvywdvL2HpDHnG+RotYs4IfJHQPnS28SndfSZvFRkZUIsE8FgwznJ1ZEJpZiozGBhLcYT53YRxhCwhjG4H0aivsDOoJ0lM8vBGSn4WMlgVUBJ1SlMY8lj/VEFZH1kjfqR6vYopuDKGR7OxnUWuy+UfoQAVCzexTdkcmlmZiaD1S4ZvFQMRl1EU3T8+HHDLHaspmmYpOqpwMMzhIB1ZGRkT6x7tBgLxH+JtbFa8HHucqbgI6UnBPYR7F5q1fKjvOOhlGpJHkdLPvx8L3cFIPJSVa1alfnnn38MUhBRnyzZgwhAjR49mnn11VcNy2c4Yna81L50Rj5IQdWwbOp4rPq4slmzZlMxs/wxZ9Qrpg4KPmK4ZCpN4ZQKS0ZmU9mID5C5FQ9NpXd6GKQfHoBI3ZDGMArrfgdRLQiQEPWpbdu2zNatW0sQ+f333xsAiiyjij3CPc6+U6LBFgKwpHEjhULxyeTJk5d36dKln4WkTouyO/jAwm73h9URZUrhsPGLyGbBJiLBUHv7hsVpMhZJc5jBWVgr2kQ2RSQHRk3M64nCPC665tUn7IxiWHCMqFd79uxhWrRowXzzzTcGgCJA5YwDUxAkPftS80lpEwC7I6TBRaGhoQvBs9ZSyrBXHruDDwiz+8PqLi8Ai71zhIxnHxRMoxCGibrGy51hYqtldzA48/Sz6gLDMyfjLFvJ+QxGZ3jZSnoRjYoRfUskGyx8blCvRo0qWBPLBSpWsedDLPHglaR8Yss3TgfVNQgL9I08cODAGoDQTKy3U2IWu3EeR9w7AnxKrCViK+H4MkgXFWytXJCfYwvFAYSx9yUCT2F5xPHQ+HC5wVlIEC/RcUyGMFjsNfrMqS8UoYvYgwgIuQB0eLaU7FQ+xsIZkr3d3xkL1RVFQSKsDRCaiC2GfqxZs+aEhISEsKJIJ1zYG3zyIKWIntUqtn1YpuMe0mJeg2sPlrSNY/KIqiVmaL00aonjocKnxBxAi9kcbXAWVv4wVXNTqWT+FYZZce0WHwwr6LVH0nQphRS+M4+8VaUUYkMeqK5NANizpkyZEg97UJQNRVmV1a7gA+nxDNZ6PWcVBSISgzknkUzyGrIiqhCZhDvHsMwZWXKgyPSWkxHHw3yNU7UTywQZxeKLfKj3U9GnjIJF3eKFIhMYXf7BEEWsfRJdRTHkJ+Ug78wZKRntmQcARBaJX4rRxAWYpd7KnmWbKsuu4AND1tZ58+bdNFWRLWFY7f4+Nj8jO2JIUgFsqVuYd9zTH91UZ+dvlWJkFpYjvE4DAFlzOMXgXEBQRmpe6v9ZQ5swLbYoPomP0RFhmCdfY+nQ37Byn6QP77hx425ireOSw3UuYJhSqQwODw8fhbV54qtUqeJQe5BdwIcsn3gda7aCiV87il/379+Pu3bt2ieoy+7gZg3NDXWtv87Oz15gTR5LaTNTtQy/hY0bGZzVDzUPv7362dV4S7Rbips/f/4DfIxIfktLOFgqoizFnbh06dIqWwiuXbv211iUy27PlS20kLzEHoQdJxxqD7IZfMAwsi3yu4VrtjpUzE5NTf0aIuFoLGK0y1bmSs2/fsz67CNTj7x1I+fGeJRxVmo5wnzE8ZAs/+QOBmcA60n8xh/535FpQhqlXKO/luI3GUtXHJOSvyzkQdt+gU1yCmj91RZ6MRk0+8qVK29hb6vxkKLs8lzZQg+fV2gPwhbKdrUHSQYfMP0CmPQpjn6YwPYtT6yjz9hBcRv2c++v1WongoYSK645un5SPvE7ujrj6tdNIxoMuPHwxnzYNzJtqZc4Hmpy9UVr+Vgqy1EGZ9IG0paOddsNOvrxUbt9gSGtLuvVq9cQfDC+h9TqUrXZEl+tjcPmfJfRpk+G4Dhx4sQOa/ObSk+eK0wK/fq5554bANvLfLILhKl0rggj9qCMjAyDPQhTW1ragwYWW6Fy27dvN0xGE1MgXvokSDkbsKF8InRcScZIMfWISYP6G8JtvD+WRY0iYqKYPGRHR8z4fRNzXZaISS8mzcvfvhyVnJkcG+gT2ElMepNp4DFdvW5AkQpG0ggnlwo9QXi7T5G6Bps1f82n4+9JOXx6ck0OoQczuc/OzdlTL6zG0oTR4hb+JnmkHGQk5cyZM7EYDpfOJykV2zEPAQRIc/HY7XQFhqglr+InhiTCL6hzseTFF5PeWWkI8ELj+fGdd95Z8cEHH1yTWq8cotQ0NJCB67XFMgjTYfRd/uSTT36MeTU/QEx0uS4PGlIw0XAfFq0+ePToUa1Kpaonl8sturOS3TWwtcdWGNTspgpc3nX53Fcff7Vr84XNaXJWXlkpV1a2yHqjeBgAAB20SURBVExTkXqW8VHKGKUKwmjhAJhesBEIVxgmBBI+jBTHXxufDXFGHjdaXUEAQOe0Rpv/7bRu06ZM6jHV4cbhpKSkc/Hx8bu2bduWBimoMoyb1vPJFO+cFIYXbk/FihWnnT179otjx47ddnS1hF+wne3auXNnGp5bt+EXsCIU6lg74EB97I56H3xJksILUWoXYTqki1iAz2is5XpISkWOzAPp5xChjdBIaBVR16Od80QkFpMkun30fRhoZ/dq2qsv1JdZyGN1h6TcfeRrJpR6hPXbqnYVSj1JNzJuzRrzwvC+ULFmd28hfscBIS1SrsnuBvjYzYZrf18MUszCV9RqPkmp15Y8UO/P4/maDBNDDD5aoraFsaU+Yd7oaDxXV6+6Jb8AQJ3xzg0KCwurIqRZ7LVF8CE2FWyNMdEVTBfbAGE68mAQWskWreSBEcYJrjFJQu8ww/ik1yadu/rp1UkNKtaOAQgtRL3i9XY4L2Zh9Isc5rbbEUo+hoTW/csE6CxsHdEihtA4tO1ISUPD1lVpOjVGRs9BfZ8EyTsG9o2F7mTf4CkmNIE2w86bOM8kQMDHOfvsrvyCJ3s5SIOSHN9Mgg/R6WB1n4ntTvuSr5QrmW5tJxNayRatZKtWGATnoy2pRmWchxv+f0Zhdr+Ni112CC/4aHwdYjF6JEYaM9BgWPEQjof2lnwwUXRPBUVoLKFpTsw3biO9xsXFGaRWjGKKlVrt3lfGBRLXETw7e1q1akWk/VJ33jTO78h7Ib8IjY6sS0TZ9yGc7D9//vxlEWlLJClmcAbS34Hasr5Tp06rsVSBw20AJahxQECfPn1ew2hcX0ygawHQQRM1W7EK/wQHVGW2yIQjCWFf7vzyTZZh+8Mo3cBswsKI4AoKplxFRTEA4g3JJAkv/fBGZWLn4a/5dPx9li6XjAgmfPDMpKXOVK8Km2LVicwtwiBCLEZ9oskQr1WZ7ZQYz/9pGHgTQMdSazbAs1P1VhUD21nY+PHjXcIvfNRPQMNYitHM+VYRLUjMrl69moPV+oGfn98WeDQmHj58eK8g3mMuW7Zs2Q5ifgCcFf+BkdpYGnJKOz/48YMnN57eOCwyILI/XrBgS5VG1ChuN+dBhQcekpcHGFPgk6HJScrTp60f8sQ7a0a6UL2y1EZzcWQUE57y/bESXxSMm6JGMc2VJTac7LyJ33os1bpGygZ4YutxRDoyK33WrFn98f6KHvWVSgdRReE8uvqNN95YumDBghNSyyH5MFeS+wPr2sahsDW2FETziudA9ILeURfvX7M4NO8XIGMqRiqLpB8efEgtPACZAZ/MFPXt+A7Vuq/8rOcct1GvxHPnUcphw4a12rFjx2DYFGKI2/+jGPtdFb5M8ahrJVZFLNP8IvOxMCA0GJ7JducXr4piDe2lYvdiL62XCPhE4SvsVAt+aUR5Q/z+i9vCpm/5IjZL/TAaqphJFSP8cV9GVmiV48GHBx7CI2PwSYNtKdIvYmnCkE0e1Z/EsxZfW7v6u5CXCf46e55++mm7vUzu8tzy/lRYu7kTWWbE1gO2pVONGzdOxAilXVVR69ZzsLUVNH8JDsT9Ftdwyf4l/TFbPgogVFzFgONhxGN+hjw8+JAbHoB48Lmfk3W6on9QwuAmQ2HXcd2ITInG2TFg0aJFYViZ8E18LPvDHlSq3cxS1WXJrmOpHZbiiD2I2M/Q1mjYsEx+3CzlJ3Hp6ennMZT+fx9++GF83759zY0el1aM2XgKPmZZ49yIyZs+bJV4dMPgxwIei0HNRSpGKDYa9PWTMabAB+mS7qrT10fVf2PNuLbvO2XYPPr71x9nlT6VOJ2elStUKauHr5bs4SqFw5MmTXoSgyHDoIr1t1YVIz5FmCKwHl65a8jQtZT6y1qeuXPnNvziiy+smgUAN5ULWJSfgM6PY8eOddgUJgo+bvY0lbAHFUo/PPgUSj0Zd3PTE5oHPrVyXkycw+0UC/9cWOn30/u6BPmEtMbENmxEx4WSabA4Z6jzcy9rdfkH3m310Xqsm2zd+iA28J5XLcRM1eDtOq+99tpK4pBqQ7VlNit28Gi5du3agXBp6ANVrJKphkAVPQt/ps2YOrUW048cBjp83RR8eE640Xnv+b2hM7ZNH5adl9MrUBHYqlyYgvEPkhMbT/6dh+k/VfQL+WHjgL0bHU3yiv0rVHvO7+inVKg6qRTK5gzHRkI9NOVQdlmdn7dfJfddtyh22T5H08WXX6haDIN68Abc/J/gw4Vn2Ct+wiaByzEheYMw3Fuv4XrSGXt59YQq1hogRKa35AB0LgJ0fsME4C2LFy++4CzeUPBxFqcl1DP/wPzHlh1Y1kHGyOoEVGZ1VUPKne7/1Ltbu9Xp5vAlN0csHdYhV6+OUslVbbHcRw2Qr8TvIX7pap06H/PPAhBXEWBUYBLnmBxcHcnV5u0OV4VunDPgu4sSmiwpC+Y/1Z49e/ZrwcHBz2N+X3UUwkF1SML1PgxBJ2ASqHgvc0kUlL1MmDkfAR+dypAKH8L95JIrWkDBxxVcd+M6P1z9dr3knJRe/j7+nTiGaw5SySb0WfidU+erj4SHRJwd8OygtFupN4L/7+iGegCiJ1QKFTEAk68ombF6Gw/V8UxN5i9dGnfcNPD5EQ73JkedRUejRo3CYZDmDh48eLcokF64JQco+LhltzifqB/+WFRt15m9PYOVwS9yLNMcMBIBqQbz6rlrkGZ+Zzl2y6oRa0qsW7P8t+UNfz7zUxelj+8LULsIWEUAtGR4sG7nafOOYHRqZ++n+q2Bd3WO81tFa3RnDlDwcefecQJt245s899wNJF4XHfzVfi2wEyNCEwDwQIfzM2cfPVRLafZ2a/FwMTSwOPzLTPqnbx1uleQKqgLyH4KP38D+RxzTa3P3aeUq9YuGbrcI73nndBNHlkFBR+P7FZxjRq+fGhHjU79hkrm1wFSTo3CXDm4PpKdl7GrfuVm66b2nHpFXGkFqcauGtUxU5NRskzsPpKlztoVGVTFqfYga2inaZ3LAQo+zuW3W9Q2A1LKeQtSSpXgiLWz3/hSspRiTppC411qD3IL5lMiijhAwaeIFZ5/wdt1fGTKF2EkJkPTDrXPkPr2nvu9J8twTqnP83vQs1pIwcez+tNkayxJImqt+ni+XuPQkanSJK1gZcjaeYMWSpa0TDaaBro9Byj4uH0X2UZgaTaYBlWbbJzaY6pTfHLM2pgK7UHOpMU2rtLc9uAABR97cNENy5ixaUatC3dP9gn0DekCh8AWILHY6JOrpA1LUhgeRpf5B7lhF3o8SRR8PKyLyZSIX5N+juH0bDd/H9VTGDqPFPrdYDh95ytNe7rc74a3Pxn8ihimpP2JhX/QE9Q/yMMez2LNoeBTjB1l+2b48iHtNFpNXz+Fqh1ApyYkHjmmPNyGZ/IJjmF/6diwjdM9jkvjKLEHXb53sZef3Le4fxDDXFdr8/YFqQITvh8Y90tp5fDxu0/+1Pep6i2fg9+S3920u2c2H928etLrkx7w8fTsPhyg4OM+fWETJYMXx4xUKfx6waO4Jfx0yJSIDDgLnshUZ+4pC7aUInuQ3K8jaK9eyAwt2nIwMzdjQ717jedifRqjHcgKU+H05qI3/WdFz/rsTvrtYTcf3AwiMXXC6zI1K9dcvXj34o9GdBlx51FqeuUOHKDg4w69YAMNWL+ZHbli2GQU0Rs/MsdKBonnKqSGX0MCQtbN7T/fabPMbWiGIevuk7sDVv21dCBcAV7z9VE9h4czoLDMmxiVS/DlAqYvHrHY5DSNE1eOfdSs5hOzZ239lKlRsTYTERLOfLHvC2bb2B1MjiZnRoBvwMe20kfz25cDhYt02rdQWprzODBixbBhqO11AE4jqFo5am3ufrVePXfw88PGlyXgIRzr3Kzzw4RR6xe2qd9+QnZe5gq0iZ8cGokZ9EM1spwxpjg7bd20wNrhdV/g4wjwNKzaiAn2CWDSslIZf6X/i6sOrsIaRPRwJw5Q8HGn3rCSlqj5UYEsxzyHbNWhnmTk6fJ+bluvw5erhsfPb9+ovcM2RrSSTKuTx7aLPT6n+zfTHq9YYy0kHkxuxcEyYQCgTiNXDK5uuBf8q1jRPzDAP8Cw+mNAQCCz8/R2ZsbWaUz3Zq8z5YMqkJSVAuQBFQVZ6KUbcICCjxt0glQS/JSKmpiBTpay0BBnwQldP/phWLthrt5ITmpziuXDtjkPJnafvLpNnbaH0DZDHEbtaudq8usWS4ibMe0/TE5/mG6Yg/bwYTYz4NnBzHcD5jPxR1bzSW/dy73HS1F8GD27mAMUfFzcAbZUz2plQZi6QGw8KRpt/uEGkU2221Keu+XFiNWRyPLVjgnoCsYyruUE90WX209u2YKbqwUBj0yZD7Ie5CanJu8Y3WZ0WlFieuEWHFC4BRWUCGkcYDk5MuZDJbmPs1O8lI0JXcetkx9N/Lv+ney7VXS6/CA9wxr2aoGUku/ro8yMCA6/8wTT+iKW7yxQn4wLKPWevYb2wZyF/wxcBxi9yb1gBjw3eGPY8cpBE1+dEo10TUlaGJsvX793fXONyjW+xD093IwDFHzcrEOsIYeVyzCyzmpZlsvG/hb3rMlra9qYhX2eU8h8XtixdGszLCJWw8/HL5RRqDA6xRJAxBpkDIbJ2ezU7PSUHdot1wYu6X9Gp1MfjB+5warRN5bRp6EsMsJFRr4ICJk9uj7RdeWK/d9sDg2uVR82INl/WReuDmk1JtlsBhrhUg5Q8HEp+22vHJsK6jDczmGd5VxbShu1fHhHHaNvotHlnVk5fM3P5soaOq9vhM5XPsJP4dsVSNAYYONnSGuAhUfqjkFOYThij6qFGfRPAzbuM3Lf6yOWDTuelZ+xI2HkBqImlX5wTB4SaUlCUgXA1iIADWn/bjqS/UPS08O9OUBtPu7dP6VSB9GHSD96vJkS1RqGGbpsaISe1cfAKXEIgKz/8r0LapqqOHpBr5qKgIAZAJN34F7Usgh4kBhGYTV+Wfil45eGXyr5ASnSQRtZoCwMyVrgPDhIGTJl4OLot03VYRyml6FthRIPbEAcK7MMPsb56b37coBKPu7bN6VSpidblkLJwTvJ6eTSX0o8BPU4PfMkysHOlpxMJ/PBmTfeFpAxeMVglZKTv4v4/qiR7GTB5GnVGRqd5lCTiKanalSsc6Ocf1Am4EFDAANAwaY+TPX5997VoNN3TkQqZMommPbRAnkrIWsLP4WfT/TC3ncTRm34saAGM/8LINWitGMmJw12cw5Q8HHzDnIGeaxMVh74FVb4hldmWX24cb16jXYQ4yN/HdKRAXiy8jLv9n06ZnX35j3WAGdOGqc3vv/t9N6my/5eOQD7f/UDAFVFfLMg3+BX31nxzq5vh3xLVCV6eBkHqNrlZR1usrkc4wPg8S2M88N1oDDdp5s/fUyl8H0JFp0IEg51iun7TPTPAJ4FYoCH5GnbpOOpaVEzPgNorTPYf0ggw9ZJyb35jOGS/vM6DlDw8bouN9VgnQy6W+GzwCkAKAbphk956d75xjBok3ljhgMrH2qeqtbqDNJd48PEnGuUr5H+UsOOC7GbxWbYfs4ChDLkPr78/C0xRdA0HsQBCj4e1Jn2aQp8Fjk4LgoO7JiKWfIsmSlfcHCMUsEqCka5+DCR5yHtRl7Gfl4LYLBexci4nT4se0JkVprMwzhAbT4e1qG2NwdugjD6CMvx81Vl6HX6orliPnIls+/8vucAUm2Q9ndhWjHXP47aeBzpyI8eXsyBYl84L+YDbXoRBwzD9vlFt7h4slqr07n56rN8GIbamd1ndnQc98Po97cf3xJ148YNSVIQXx49eycHqOTjnf1uqdV6SDQaYYLh7Yff7Leg93Y/HxV8e5jHSBwBIAyzv7r+8Lom65l1fQYuiT4fIPf7LzK05h1MZ7gRpAhKKm2XU2Ed9Nr7OEDBx/v6vLQWw0fH4FVcLF3i6A0rBi2KiVD5qEYgwgBAJAFAqAZO5MfoOSb7vwdXUy/dPXcXzoo3Bi+Ovp6n1dwI8gu5VT6g3J3mj7W42e+ZftdJWnpQDlDwoc9AcQ5gqgYjY4upXXyCVSPiP4teGHULNp+eWFunNUasyPSJRwdrGKIPBCBVQyDxgM7F0q7ZGLrPTs/OSPvp9LbkQUtikgBMJ1vUan1gXIdxVx5lplfexgEKPt7W4yLaa2n+FFYaXDlnx5xdJ68fbuejVD4Fz+iGkJQifRUqrNrFwVfIMGRPJnnB95pTAXgqAs4q4roGvJoLaueYm0eT/jnSb0GfjYmj160RQRJN4oEcoODjgZ0qpUlkghhBDEgzmCDPmFy2gi/3w5c/JDPF15LfDyd/CEhNSa2VfP/f8DuZyUH5unyVnpH5+8p8ymO6BrZjZmvAQRFqGfs40htWG0QdkSofP/y4+jFxfQLjR66L48umZ+/hAAUf7+lrcS3lOHg7c8U8nC1lHNhs4EPEnyr8lUi6dNfSCimaO80v3rnQCqsuPgd17QWAT2H5bP1AZdDgmPlvHI0fs/ZwicwkAPITPTyTAxR8PLNfrW6VQeohuWSsUsYy5a0uwEyG2C6xqYj6hfzO3zxfd/PRDbEX7l4YDrsQvyJhax+lTxfEmwQfVq8vIs1MFTS4jHKA+vmU0Y5zANkFLzn0JHgZhkINI0Zjux4NIhtcmvDqlO/qVq63ncwP4w+O0zfjr0uc5VT0KcETDwmgko+HdKQ9m4EZ7sQ2Ux0AlPl+4vvhD7LvPE1sNzAL3VYoMhOWD9uaJbU+eETf+vXsL4cv3b34Osoo2D8ey2ws+2NZxLDnh92WWi7NV/Y4QMGn7PWZwykG0JDnggBDeFhg+Ub3s5I7YBM/shphTp4uiAyvf2ILEShfj/wFK/UUFKTVPNQYViu0pVyat2xxgKpdZau/nENtgYczMSRnVqtQIxeKmBJLlVXHcFhT2Gr6f5QwfqxUQiBNhfx15U+iZhm2NDaUw3FXRnUe5dQ1qKXST/PZjwMUfOzHy7JeElxyCg9sQIirm1CRbreq1epwvjbvJADoTmFsneTs5OFL9y96i08u9gzgUW49sXn0pTvnOwPE+Gz/aTgtMUibPnRCAcl0EhpaNjlAwads9puBaplMbjASExcdToeBbBuOR8jD6LAUahqA5xoprk6VOinNqzdbm6tV78KtYc4XgKPJ75d+e3fEsqHfxP8Z31ZMtTuP7Ww38cfxX2w6vGEEpmjw0zPy1fnqzYkj1yWaK4OTyQSkmUtFw8siB6jNpyz2moBm4A5xDsSPXwxMECntMh+LyRPJp+j4sNvUKwOX9PseAcRFuTd+KgBITZzf3HN2Z0vM+TqBXS+SQEQKJKRcJavSazg12czQD1MpKoKy2muPxDcHaD0BT+hCIzOD4S52Xb5O/R3KMXsUDrXbBKxmC6cRLuUABR+Xst+2yjkd5oDKWYgGHNnBC1MbpB+AMBRj+NPiTS9au4cv8YfhiafeXT16empOxn0AyCsAmtqI8wegtMa5lsrHNx0SmAbFYIs/lvVlldCycMNyWBXRsMtoGNIZnjdUk4TF57fLddy8hNEbr/J1mDrLsMA0QKxIQkeJVBIyxagyGEbBpwx2Gk9yodrlg9cREglrg2OgnKxeSCQo+BgyOiwnRvbKKnF8M2BBEgLfHbgk5h/U+QK8lesAXILJLqWQvLAoIRmiZwMh/WB6BpuPe4AY+xBokQwEuYEqMtU69WWtXvNr/Mj1ZHpGqQd2wiBrShdM9wBq6fWYO08Pj+AABZ8y3I06Dmsvc5wfXvYwhuWIGiTpYDk9WcPZoNrgzSZ7MJuc1c4X/sPweMO8rlnbZ9W8eu/SYxptbhjHycMYmT5cxrGVIJz4QULJ1bPcPUYvS8aaz/cDfQPuh5YLuTG71zKLkg5fB39mdfpKoIyoe2gmNg+UFdid+Hh6LrscoOBTdvsO7zqULfKiM0wkJ2Nb/Hvn34aPV3n8nLVNwk58UI0M+74Xal7FfHDMFjfxlYkESKwCE7OFmYiANCbbfXJXPT4KMk8OtMxi9ig+jp7LHgeKdOmyRzqlWMdqsw22GoYN9ZH5tNlzftfgZC7Z6t0gYOkh86wM0gXEC2y/rC+2kqGrOH03427U/gt7W/LD8tis9JZer/nXVfTQeu3LASr52JefTi1Np5ddIfYUoi9h0a6KfyT9FvP75d+Y3ad3z+vcpPMNscQAwKpB5OEnUakZmVzy9AmxdZaWbum+uO7vJY4dgo0F6/Np4Rl9eNWItXQBMp4hZfxMJZ8y3IEJoxPSNPnqAwAfgzQACSEC6ywPS/h71ay3f3irs5imXbt9rX5ufs4TfFoYjlNDlCFkvR6XHDsv7wwevCTmnd+u/D4BwCNoA/dLZm7mBpcQRSt1CAco+DiErc4r9Jkn28bBAXA1auQlggqQgnqrtblT+i2Mmjxz28wiycGYKjLCdeHehUEAnDZFcZz+XyaEuVh078SLCWvf7/jj/vhvfOWq97Cv+7OFVeugCu7JVGfPSxyz/g8nkkOrcjAHiMRODw/gAHaXGOKr8O2hVKhaYnSoClYjhJbC3IIh+WR2Xubvbeu9dODN9m8egYqlI80F8Dyx59SufgmH1gzFkHkoz4KsvIwZCaM2fMzfO+M8Y9OMWhfunuwT6BvSBVS3QJ0GR0SolP9i6Y09FXzLrfh20Py/nUELrcN5HKDg4zxeO7ymRT8vqnbgyt6ewcrgF/HiNseLHIFKMYzOpOAlvoYlTq8HqYLTy/uFBGDJUyIRFRlzCXFwoznPsfpRS4auOEDuHX2s+2ud3+ZT66MVrLKbv4/qKdAcCeM3XI1ktyG5HcXDuX1QndjV7du3f7T4j6OJouU7jQMUfJzGaudVNPP/ptU9fffs6wChTgCe5qhZjANiPhwA56waHj/FGZQOWTLgRR2n7+On8G0HD54aAEo5YPI25nqdgF/QL10ad9w08PkR/zmDFlqHazhAwcc1fHdKre+seeu5tJz017CAO7HpNMTv0TIWxSjgHqh1efERIRU+ndVnXkqxKDvffBA/rk5K9oNeWB+IGJMJMJJh/gzYnU5kqtP3NKjabOPUHlNdYnOyc1NpcaVwgIJPKQzyhOixq0e1yczJbIu5E81UcuwkwTKhBkmDYdLy8tUX1Pr8fa1Cn17zXp/3ch3V3q/3fV318OW/egT5hLwIuxNAh6sKiQemJ+46JK7fyinLrZ87eP4+R9VPy3U/DlDwcb8+cRhF67h18oPxB+tp9DnYR4thqparcl99TH9+2rRpekdVumL/CtWe8zv6+cp9O0PaIZJOeGFdyQC+E3m6vN1vNhiTSO06juoB9y2Xgo/79k2Zp4zYdfScPgpD5+0g7VSHtIPnjb0FaedEVn7GL23rdNgyqsMojMjRwxs5QMHHG3vdwW02Y9dJR7UnMvMydzes2HTj1N5TLzuYDFq8m3OAgo+bd5AryBu8YrBKr82rq9doc9aMWU+W0RB1WLLr5OnUB7Bd8vq4oUt/EVUYTeTxHKDg4/FdbH0DsTzqMKhJbeBzE6DW5l1m9NyuVSMTfjNX0pp/1gTvPLolSqlUvgQVq4RdB547u1+o3SFxSPsh1F/HHBO9MJyCjxd2emlNHrl82FuwzkRhRAzD8xy2DJWdz9XmHggPCN83sPnQfxo1amSY9b7n2J6I/zv+Y/scXV5nTIfA3l7M43ig8MfBjiM7Dm/pX55r+PSWMe3Gi57kWhptNN5zOEDBx3P60m4teXv1qHrpuVkjMFG1K0bD6wGEyHNC1tG5lqXJvN669rOpd+7f9Lmdeaeqn9yvLmIjCysnUzeOY+h8d5XAyhtn9/v6eGE4PVEOlOAABZ8SLKEBhAPbj25vsP5o4gBcdgUIEVWq6CBbHfNr7BQF4iJPm3dAKVeu79XijZWdm3Um+37Rg3LALAco+JhlDY1IzU5tsunIxr77zu3pgTlhjcxxpHDf9WNdGr+S2LVh12XlypVLM5eWhlMO8BwgLqZ1YVy8xAfQM+UAzwE8G2R2+etnb5zuvfqvVT2SM5OLSTwEdPJ1GqZxRFNmaLvYdZVDwuPxLG3l89Mz5YA5DhhwB/++RYIFFIDMsck7w/FcqNDyp/Aj88I64df+t3O/Mn8m/cH8++A6g+U7mKaPNWfa1+/A1AyviWjmZ/x24rcfz9JJEkAPygFTHCDAg/DR/w/kPiiXdxspUwAAAABJRU5ErkJggg==;" vertex="1" parent="1">
          <mxGeometry x="443.6" y="90.75" width="66.4" height="40.49" as="geometry" />
        </mxCell>
        <mxCell id="waG4lvG67HVM-hm1_P78-3" value="" style="shape=image;verticalLabelPosition=bottom;labelBackgroundColor=default;verticalAlign=top;aspect=fixed;imageAspect=0;image=data:image/png,iVBORw0KGgoAAAANSUhEUgAAAR8AAACvCAYAAADE6tqMAAAgAElEQVR4Ae1dB3wUxfffvbtcLh1IgBAi0ntTKTZABGmKiBCEhE6QJliwUP2BKCB2EAgdhCTS/nQEBBE7vfdQlBYIpJNcLne3/+9csmFzubvs7dXczX5y2d2pb97sfve9N29mGI7jvsWvLkMPygEv4QCe9wD8hl+4cOHQ888/z0VFRXEHDx5EkOHYh/8T8WuDX6CXsMSpzQRf6+L3LUMunFozrYxywE04MHLkyM/r1auX37RpUy4yMtIAQgCkHXgnhuJXzk3I9EgyCO7IWJa95JGto42iHCiFA3j2r/n4+OTjx1SuXJk5f/4807Fjx9bTp09vlZ2d3bSU7DTaBg4Q3JHZkJ9mpRwo6xzIRQP8+Eb4+voSEApNTEwc0axZs3FxcXGv83H0bH8OUPCxP09piWWEA/j6sqZIDQwMZMqXL99rzpw5Xz755JOfbtq0qbqpdDTMNg5Q8LGNfzR32eaA3BL5AKAawKfJY8eOXdqlS5e+ltLSOOs5QMHHep7RHB7CARg9TUo+xs2DKtbh1q1bi6pWrboARupWxvH0XhoHKPhI4xvN5QEcEAs+pKlKpTI4PDx81B9//BFfq1atzz7//PMGHsAClzaBgo9L2U8rL2scgFG6drly5SYtX748sXHjxuN37tzpW9ba4C70UvBxl56gdJQpDsAo3QxA9OVbb7217Jlnnqlfpoh3E2Ip+LhJR1AyyiYHYJSOefjw4ewKFSo8VjZb4DqqKfi4jve0Zg/hAJwUe1SqVGm0hzTHac2g4OM0VtOKPJkDCoWi67Rp06p5chvt3TYKPvbmKC3PWznQQK/X0xEwK3qfgo8VzKJJKQcscEApk8lCLcTTKCMOUPAxYgi9pRywgQMqG/J6XVYKPl7X5bTBDuQAfZ+sYC5llhXMokkpByxxADYfUdM1LJXhTXEUfLypt2lbKQfciAMUfNyoMygplAPexAEKPt7U27StlANuxAEKPm7UGZQUygFv4gAFH2/qbdpWygE34gAFHzfqDEoK5YA3cYCCjzf1Nm0r5YAbcYCCjxt1BiWFcsCbOEDBx5t6m7aVcsCNOEDBx406g5JCOeBNHKDg4029TdtKOeBGHKDg40adQUmhHPAmDlDw8abepm2lHHAjDlDwcaPOoKRQDngTByj4eFNv07ZSDrgRByj4uFFnUFIoB7yJAxR8vKm3aVspB9yIAxR83KgzKCmUA97EAQo+3tTbtK3FOIDdJord0xvncoBy37n8prVRDlAOFHKAgg99FLyWAxzH0QXfXdj7FHxcyHxatWs5gN0mFK6lwLtrdzr4TJgwoXrlypWH1qxZcxb5hYeHD5k8efJj3t0NllvfL6FDZfKznIrGWssB2HwCrM3jSemrV68eTn6uapPTkH/+/PkN5s2b13fz5s3dIyMjn+AbXL58eWbDhg2H6tWrt3HSpEnLBg0a9ICP8+bzzstrghNPr47mGLaDTqOvTXjRbmHrJL2W3Texy8cJ3ep0y/Rm/hi3feTIkdU3bdr0YlhYWB0Sd//+/cs9e/b8JS4u7rpxWsG9y148AQ1OvcR7WPvLL798zd/f/3mVSlWDVB4cHHzt3r17f4JfWxcuXHjRWQTJHV3Rtm3bwm7cuDFuz54909HIPkqlsopxnQirit9Lu3btat6oUaO8//7775xxGm+675vYqffZB6c+02m4dzgd1xBtD9frmfBAlaqhXKd4ZV/Sz82f6dU678yW817NJ/JMfP755w0uXLgwNiUl5WN8yEYoFIrnyQ/PWo/r16+38/HxqQrJ+v7evXvvCZ8h2Hvq7Ny5c8i///5bC+mFUZKudTod06BBg20HDhw4JqkAB2ci7+GlS5fG7t+/fzr4NBBtro8qiTRdWS6X1we/Xrp69eoLAQEBEZ999lkyeHPfwSQxDjW49e7dO+r333+PhZrVCQ+BqLZoNJpMPEjxL7/88sply5YdEpXJQxJ9uG1kq7/TDw6uHlApBk0K1mq4opYBfAxHfp6eycvVMzIZm5mSdzu+ZVi7lfNi4ryKT4QRCQkJYVOmTInFc9UvMDCwaQF3TP9/+PDhOYDNtk8++WRvnz59riJVJfx6jh49evyff/4pF/tsmi69IDQvL495/fXX30QdSyylc0Vcly5dos6cORNboUIFUe9hWlraqaCgoMRPP/10affu3R0GQg4Bn2nTpj0JFWtYREREf0g0wVIYrtVqk27evLl+7Nixa1CeR3/h5/7zZcPf7qzt78+GRnF6zqBiCYGH8I8HH3Kdk6UjJ8MBEEpKzrm5PqbR6DXjOo7zaD7xbX7++eejbt++HYsveCc+TMwZL9UdPJNJX331lU96evpT48eP9/H19RWTtdQ07gg+H374YSt8wAejzTFS3sO7d+/uefrpp5fCLLK+VAZISGBX8CFfIyD/m/jK9MfXqIEEekpkyc7OPo3yEgBAS6Ojox2GwiUqdkJAwpGEsF9SfojVc2w0wKYJqRLgU1SzEICE4FMk/cgLuo/4yqVpsk+HqoIShjYburR7C8/iE8+QYcOGtYJqPhhfcEkvEyknPz+fwTNlKJLYG+11uBP4wM7VcM6cOf2hWkVBgjF8zKS2k2giqampa4YPH74M76BdVUq7gQ8R7aBTWv01EssUfLX21K1bdykePoegsFg67JVuwJYuUbnc/dgANszw9eYKMUcM+Oi0HEMASJvPMTIBABHa0vKz90T6RSxNGLLJI/hE2gQDacPvvvuuf0hISBQkFZteJlKeIw53AB9i14ENLBZSYTSA1fAxs1dbAdjnWZZd88UXXyy2lypms8EZowytoB5NhsFtCqQdYhx1yOHn51cLonJnDI9W69+/f8qRI0duOaQiBxf69V+TWwW+op4coAyYopIHNBRKNIaqC0FIKPWQcB6cDNew/7D4bBAQYmUF3w9yTw4/ubKWjtV0Lveib7VBI4am/L72zzLJJ9IW8jKdO3du3KFDh4iRtBe+5BVIuDserjY4E/vq999//xnsVyNgNLa7WwbUtor4dcCIYvPWrVvnJSUl2aziSwYf8jU6evTou5BIpuLB6AyLuX2UZwtPFqkDVvmW165da4/OrgKUv/PTTz+lWMjiNlFrjsU1lHW5+26mNmOqSuHfGYQZ+GUOfIhEo39k2ikCHwI45DCADi55ACLgxAMQrn0DfYJaPshPbh/cXlll6qRP72xfsb1M8MnQOPwjkvSKFSs+Q3+PwENv95eJr8deZ1eBD7Gvnj59egrUoyl4DxviHbFXk0yWIxQC3njjjZTjx49L/rhZTSn5GgF0xh07dmx6pUqVXPI1Il/AcuXKtcFIRdvQ0NCQlStXXkhMTMwxyS0XB+6/uC0sp2PSuBTdzelK1r8XyCn29RaCjzmVizSBl3xgYIZdqKBRBGz4cD4ND0CGez1TIVgV0ubQrYNtH+8eGfL99LgLiYvdk08FLWIYYte5c+eOQZKGmuUwSZqvz15nZ4MPsa/+888/78DUMQ3vYTdnfPx5XvFCANwUbBICCoV1vljLZ37IjgydW07p3Fh3tQd9sG9w1LWsM7GhgZU6GatRPIeI3YYcPIiYAyAhSPHSj17HGfJp1Bh6L7T9kLKMJ2vzcQ+06XsifR5zS3vQ3LlzG3777bf94fzmtnYdwltzhzNtPlJH+8zRbms4GRSCw2KCtUPzoiQfMmR35coVt/0aCUVB+G6kQCKSLAra2hEkP2/XkSuZKUrGv6GxCiWsQwgqhvACLDJcmlK7SAQv+RDA4qUfAkTG9h9DIfjHh/vLVLU4RX7n0G6h1QYM7e8W9qBC57dx6LPpkHRcIknzfLLl7AzJh0iF8ESeDLunQ+2r1vKBqMWgqePatWubP/vss6LtQRbBhwzZweD3LjxFnWbXsbbhfHpeFIS3a3sYvqvMmjXrzvbtzrVz8Hadh2zW1ADfArsOARAhiPD08mch+JiTekhaXjIyXBeqXUVhACFSDg8yPCjxdRjuCw3TAC7fALmqZSrsQaFdQ6tM+uBjl9mDeLsO+qtM2HV4fpo6OxJ8iH0Vdp13MeQ9FeYGp9hXTbWxtDD0o2FQCLyoBv+8UoUAk2rX7t27K0HaGZqVlWX3IbvSGmCveKhip2H1T/jmm2+WdOzY0aHzxYhdJ/G/hbGpD1OiQwMrFhviJOqWQsky9lK7eJWL8IlIO+Qg4ELUN3LPq1gk3Jz6ReJ429D9/IzTlVUhCSNaTljSsYFj+UTqJQcZIV2/fr1k57eCUtzrvyPULoEXdzRe7GLPlXu1viQ1wI4k/Nb/73//W4P+NjkyxsKB7wWM3/9KsmMUSfXRRx/1hgg8ELPNXypZZNkLgZfmboiCcevWrdvsCOrH7x/S+9+M08OJXcdU+eZAh08rtPlYknyEEhIPQELwIdd8WTwAGYMPqZOP48GHD7unTt9d1adaXOKQjQ7hE6mHTC6GXaA/Bgn6uKu/DqFTymFv8GnTpk3vW7duDccIlsnnSgqNrsgDIeAUpLW10ERWd+7c+QZPA3CnKgGf1bm5uUdmz56txNBmSzT2ZfgK+POJPOEMr9Z7EFnjoqKiZkMSyrVHm746OK3uX7d3jA4LqjgI5ZUzV6a9JR9SjznwIQDFAxIPMsYAxIeTcowBCEEp9/LSFr8Y9sqX03pOSydp7HFgkqLv1KlT38KDOADPVzN7lOluZdgLfMaMGVN3y5Yto+HFPQjvodnnyt3ab4ke4lWO9+9XqNmbPvjgg7/hLEwMB21ZTLrj2rZtmwuLtR9EO0tllPk4tHUJjJrvHzx40KblKPpsbtm9fFDF9xmOaVsaU5wJPoQWXvoh1zzQWAlAjELBrLulzpz++9CDJsVlUrbYo1evXvXB7ykYISWTZT32sAf4YA5Wd4DO+5AKS32uyiIjCY/gKHzw448/foDpGjVka9asYfBF8njgIZ0FG9BwzJh/15aOe3x61fbJNxWfiAEevp7SVC8+nSW1i09T2pkHHGE6ocpGwnnpiFwXGa3JTeGh1TJ9IvxCZtacFlGND5Nyxov02OXLl2d7OvBI4Y2JPO2rVKnyiacCD2kv2sbgWWg9ceLEbvBabyCDnYeBb4UJXnhmENraHZb4SKmtqx76+EA2V9E8J1PgflxKYcTgLObgR6tIWnN5eJVLTHlCkDEGIFP5hek1ufoe5WVVRplKJzYMzm+joTr0EJvem9NBFRmI9jf3Bh4AZJlff/2Vcfoyqm7A3MYYCpTkOTt375cNYSNry6m0zL+3xGtuYiUfIW/M5ZErSgcyofQjBBRh+cJwofTDh6c+yCPJu677Y50k6Qf2tWoAnq7COum1aQ4QB0sM+nikqmW6xZgAnZbmleDjCwAJM8cUS+F6hq2JePJj/DkVk3lfayl5UZw5KaYogYkLKXlMFFMsyFj64YGGJOIBiAAXWayM0Rq+Sw3yZfmSlkbBy9SA/IoRQG9McgAOekXPlckEHhpoeMI8tG1mmwXwUZmNtBghLxp9yGHVzK2ULIupHRFpjdrF1y8EGUsARNKTtJmpRaCqlDGyUL4ca87gMcmntCaPt6YFr4qeK2/ige2L10rgFhG5MAs3mWSFa3Y4hl8llCI9C77IkkBXxnFKRg6pQPcoe/o9LVOukmU2mlOhjFsgxuBM1C6pAMSrYwSAjEfAeFoMUg9/U3CWBNTgsaR8xau2/o5fKKwsjdyCV04HacInjP6SVdV8MTAADdnHembbmOPRW2RjQWKyo7FJaPQCOBxFX7x48VXyg+NZNPIuACAliSnDHmnwpSndcGKiIg5igHHwnQdZZr2X+bRiVSh7G5z5+vmzUALiw8iZDyeqV3ZGcUO6VKDGnlgleCWs097X5GUiH7X33nuPGTp0KIMpQQwZ2i0jh9N4BZ+bPPBmQ79+/cb+/PPP/TC3LqZVq1Yz4dB4lPjjOPOw/Mm2EyV4CK5gfH8DHKjWYpjtONYBEZZ8GDeJS5cufWLmzJlvYDSqN4bkagkTuMs1p9ebBK3L11OZBnXNaydiJR9hO83lkSr5CMsm16akn9zs4sBD0kEaM9lmEmfpgB1DUj5LZZqKIy8MJlsyI0aMYDAlqGjkFgvOMXDtZzC/j8GoG+OKL7spek2FAagdzive0Q9rMv8AJ8bEGjVqqLEWEE/OeqyLtRa7VvTBKoi9oInU5yMceXYo4qLBOXgw4rAEQDRWO5xAgMdcY2JjY49j644JPXr0iAYKx5G85tK6MlyTb2KUC2qY+iF0GTOHWMlHmF1KHmF+4bVQTeOlHBIvtP+Q8FwLbRCW5y7XmDrDYL83w7AteZGELiNw2GOWLFnC4EUj+1IZpCJ3odvZdEAivAjwnbF8+fI3sRj8CgI8xjR07dr11B9//DEFe+fFQor8FgLDf8Zp7H3vMPBBg09g8erR2LNrFGbHHxJLOND3UHJy8ig8PKNJGWLzuTrdtVtpTiFBCCRSKzQFQCZsPVKLd3g+omKRLzl2ZmAwZ88AQOYqhUrBYPsmZvr06QYAInm95QCApONdWvD222/HYgHAjzt16nS5tLZDCPgT5pB3ITC8CXBPIHx21OEQ8AHR/2AXi/cxQXWVVMKxUPwqLJP6PilLahkOy0eMzsYHpB9zjofmVCjjIsQanI3zibk3Bi0hAJEpGQapR4F28T8xhTo5DbHhEFsOsen8/fffDF4m0RQQNQzLUjDYldNQhiNfKtFEOTAhtIfzmJz6Ac5jAD5/WFsVBIbdmJP3FoSATyEE2BWBcnJyGGwOWtKAai2RxukBFpkbN26ch87eZxxn7T0c1faRskiZ1uZ1SHrhgIAJADLneChWhXK0wdkcT7If4tkioCM8jO+FcS64xgvAwF7BnDp1qphtxxpSiFqGwQ4GH0WDtETAzBMPSHe5WOh9HrY+XmpL+5o2bZoGW9D0CRMmkAEhW4oqylsoeeZig0XGrgZn8jVp0qTJAYi6PxbVZuMFKQtl9gWCd3c7o6EQgAqH34n04x9cfI02sZKPGFbZYnAm0g/Jzx9C6YcPc8czAQnsNGoADnvQR+xERF3r1q0bg+fKrY3R1raX8ArS3QEA9VpzeWdum1n/7I0TLwSpAmvD6YLJzc+5ElG+yoFZfb4qMZEYo51ajA7HA8w6gVcNpL6DwAZi/90B2g5j00YNVh9tYXe1C2LaORBs9Bk1x4bSw0lZ1atXP4cRgdITuzJFIRCZkn7ESj7OIN9Y/TJIPc6o2IY6yEfNEb5gZckXSCz7CK+wfg7ZYyvVVJ7Bi2NGXrhzdlmgKmghFt4dj1XAx6t8/BakZWcsGbQoepSpPCjrMCZlHzUVJyYMUtNe4MIIbPIwENLYF5BAv0O+ZXYHHwyx3hNDkJVpHFGmlSSISF4IQGKnXYgosUQSY/AokUBEAF8GfxaRhSYpWxwwubPvoEUxY3wVqml+CtWzxs0BCD0LEPrfoCUxY4zjCu//MxNuNhgq1nn49k3GMrAxsOGuad++fdEoGwDtV7uDDyhxxBC5I8o0yzRLEVpfqC28UdaUXQQARKZdCFUt4bWlsh1pcObrzc0rmjrBCK/5eHr2CA4UveR8a2ZsnVFDpVT1wb2lPdAqqxSqPqOWj6rJ5+PPECpE213JFssYGFgAR8b+WFN9Juw7JoUHR4BPSU81vgUSz0BJu5cpkZSS2cwA0OWbjz4+YtUuZxic/XwVBtApC+pWSWbTEDEcwPtSwkbhw8kaYg2qJ0rNjzRKOdfQOB3MHqVa54nKh8GhPbCpxT548GAMfK8s7u1ud/Ahq/jb+3B7e48JSYjNUBmG3gnwiJV8xPBNaDAWk56moRwgHOBYLhinIBHcCNLLZKbSWVx+GHad03DmnAibTgwcGdeLqMf+Q+1iKvXoNLwkhCUpUm5qDE0VK/l4NF9o41zKAZZjidpU+jIMHAMvTK6EigW1i4jyJYzYZJcKAM8sTG3pCw/p2d27d38k8pfSYrtLPqXU5xbRWMfZoXT4a/0N5RPHPXsbn6mR2KFd5xGFQ+165E9R2CJOn38WapfZ6U1FDWeZ4zJOebrons/PcWdwWeSsCBXrOlSsubDnRGNa1CRz2+MYlyO890rwETLAEdfCOVK3r5WqKheR4AyDc1Fl9MJjOQAzhdAd1tDOiT2nXc/TqRMBQHctNDwtV6v+8buB3/1nnAb7rF2Ev88igM5nmHw6pX79+oMwX/Nt7HpDJoZLOuzqZCiJgjKWKZeFVFpozvOXBZSgnth6jI8Ht/OZ0AifUm0/xODMA5A5WxGVfIy5K/3eg+d5mRTtV74ZHxezsI8u0DdoCLj2jJBzWE3lfHZeVlzCqHULhOHCa0xP2Yl78jM4aQrjpFxTyUcC1/wCfA25cvQPGeHPsPRowfKjxUpNuaUpFXiKZbBwQw3OFphDowwcgNZVwxwr4ketWxISGDokL1+NXVy4Fdi9LVGtVX8qZ9mhAJ655vI5IpxKPtZw1ffRCCYPQLkPH6lVpqQevvjU5HymQngJaZiPdu2ZACZvKHctJSZrJy79ZDIiPUrnANmeBjtDtIaK1B4gtN9Ujjl95lxEOPm59KCSj43sJyBEfv75JiXdotJT7+YX29CvKMLKC4epXSYkNitJc1hy8kJhbhFD9pizx0GAbM6cOQwMpR41r4vwhgA1lrGp+fLLLw/HBFq3XJSP70MKPjwnbDgT6YfNLn0Z3vtQvywdvL2HpDHnG+RotYs4IfJHQPnS28SndfSZvFRkZUIsE8FgwznJ1ZEJpZiozGBhLcYT53YRxhCwhjG4H0aivsDOoJ0lM8vBGSn4WMlgVUBJ1SlMY8lj/VEFZH1kjfqR6vYopuDKGR7OxnUWuy+UfoQAVCzexTdkcmlmZiaD1S4ZvFQMRl1EU3T8+HHDLHaspmmYpOqpwMMzhIB1ZGRkT6x7tBgLxH+JtbFa8HHucqbgI6UnBPYR7F5q1fKjvOOhlGpJHkdLPvx8L3cFIPJSVa1alfnnn38MUhBRnyzZgwhAjR49mnn11VcNy2c4Yna81L50Rj5IQdWwbOp4rPq4slmzZlMxs/wxZ9Qrpg4KPmK4ZCpN4ZQKS0ZmU9mID5C5FQ9NpXd6GKQfHoBI3ZDGMArrfgdRLQiQEPWpbdu2zNatW0sQ+f333xsAiiyjij3CPc6+U6LBFgKwpHEjhULxyeTJk5d36dKln4WkTouyO/jAwm73h9URZUrhsPGLyGbBJiLBUHv7hsVpMhZJc5jBWVgr2kQ2RSQHRk3M64nCPC665tUn7IxiWHCMqFd79uxhWrRowXzzzTcGgCJA5YwDUxAkPftS80lpEwC7I6TBRaGhoQvBs9ZSyrBXHruDDwiz+8PqLi8Ai71zhIxnHxRMoxCGibrGy51hYqtldzA48/Sz6gLDMyfjLFvJ+QxGZ3jZSnoRjYoRfUskGyx8blCvRo0qWBPLBSpWsedDLPHglaR8Yss3TgfVNQgL9I08cODAGoDQTKy3U2IWu3EeR9w7AnxKrCViK+H4MkgXFWytXJCfYwvFAYSx9yUCT2F5xPHQ+HC5wVlIEC/RcUyGMFjsNfrMqS8UoYvYgwgIuQB0eLaU7FQ+xsIZkr3d3xkL1RVFQSKsDRCaiC2GfqxZs+aEhISEsKJIJ1zYG3zyIKWIntUqtn1YpuMe0mJeg2sPlrSNY/KIqiVmaL00aonjocKnxBxAi9kcbXAWVv4wVXNTqWT+FYZZce0WHwwr6LVH0nQphRS+M4+8VaUUYkMeqK5NANizpkyZEg97UJQNRVmV1a7gA+nxDNZ6PWcVBSISgzknkUzyGrIiqhCZhDvHsMwZWXKgyPSWkxHHw3yNU7UTywQZxeKLfKj3U9GnjIJF3eKFIhMYXf7BEEWsfRJdRTHkJ+Ug78wZKRntmQcARBaJX4rRxAWYpd7KnmWbKsuu4AND1tZ58+bdNFWRLWFY7f4+Nj8jO2JIUgFsqVuYd9zTH91UZ+dvlWJkFpYjvE4DAFlzOMXgXEBQRmpe6v9ZQ5swLbYoPomP0RFhmCdfY+nQ37Byn6QP77hx425ireOSw3UuYJhSqQwODw8fhbV54qtUqeJQe5BdwIcsn3gda7aCiV87il/379+Pu3bt2ieoy+7gZg3NDXWtv87Oz15gTR5LaTNTtQy/hY0bGZzVDzUPv7362dV4S7Rbips/f/4DfIxIfktLOFgqoizFnbh06dIqWwiuXbv211iUy27PlS20kLzEHoQdJxxqD7IZfMAwsi3yu4VrtjpUzE5NTf0aIuFoLGK0y1bmSs2/fsz67CNTj7x1I+fGeJRxVmo5wnzE8ZAs/+QOBmcA60n8xh/535FpQhqlXKO/luI3GUtXHJOSvyzkQdt+gU1yCmj91RZ6MRk0+8qVK29hb6vxkKLs8lzZQg+fV2gPwhbKdrUHSQYfMP0CmPQpjn6YwPYtT6yjz9hBcRv2c++v1WongoYSK645un5SPvE7ujrj6tdNIxoMuPHwxnzYNzJtqZc4Hmpy9UVr+Vgqy1EGZ9IG0paOddsNOvrxUbt9gSGtLuvVq9cQfDC+h9TqUrXZEl+tjcPmfJfRpk+G4Dhx4sQOa/ObSk+eK0wK/fq5554bANvLfLILhKl0rggj9qCMjAyDPQhTW1ragwYWW6Fy27dvN0xGE1MgXvokSDkbsKF8InRcScZIMfWISYP6G8JtvD+WRY0iYqKYPGRHR8z4fRNzXZaISS8mzcvfvhyVnJkcG+gT2ElMepNp4DFdvW5AkQpG0ggnlwo9QXi7T5G6Bps1f82n4+9JOXx6ck0OoQczuc/OzdlTL6zG0oTR4hb+JnmkHGQk5cyZM7EYDpfOJykV2zEPAQRIc/HY7XQFhqglr+InhiTCL6hzseTFF5PeWWkI8ELj+fGdd95Z8cEHH1yTWq8cotQ0NJCB67XFMgjTYfRd/uSTT36MeTU/QEx0uS4PGlIw0XAfFq0+ePToUa1Kpaonl8sturOS3TWwtcdWGNTspgpc3nX53Fcff7Vr84XNaXJWXlkpV1a2yHqjeBgAAB20SURBVExTkXqW8VHKGKUKwmjhAJhesBEIVxgmBBI+jBTHXxufDXFGHjdaXUEAQOe0Rpv/7bRu06ZM6jHV4cbhpKSkc/Hx8bu2bduWBimoMoyb1vPJFO+cFIYXbk/FihWnnT179otjx47ddnS1hF+wne3auXNnGp5bt+EXsCIU6lg74EB97I56H3xJksILUWoXYTqki1iAz2is5XpISkWOzAPp5xChjdBIaBVR16Od80QkFpMkun30fRhoZ/dq2qsv1JdZyGN1h6TcfeRrJpR6hPXbqnYVSj1JNzJuzRrzwvC+ULFmd28hfscBIS1SrsnuBvjYzYZrf18MUszCV9RqPkmp15Y8UO/P4/maDBNDDD5aoraFsaU+Yd7oaDxXV6+6Jb8AQJ3xzg0KCwurIqRZ7LVF8CE2FWyNMdEVTBfbAGE68mAQWskWreSBEcYJrjFJQu8ww/ik1yadu/rp1UkNKtaOAQgtRL3i9XY4L2Zh9Isc5rbbEUo+hoTW/csE6CxsHdEihtA4tO1ISUPD1lVpOjVGRs9BfZ8EyTsG9o2F7mTf4CkmNIE2w86bOM8kQMDHOfvsrvyCJ3s5SIOSHN9Mgg/R6WB1n4ntTvuSr5QrmW5tJxNayRatZKtWGATnoy2pRmWchxv+f0Zhdr+Ni112CC/4aHwdYjF6JEYaM9BgWPEQjof2lnwwUXRPBUVoLKFpTsw3biO9xsXFGaRWjGKKlVrt3lfGBRLXETw7e1q1akWk/VJ33jTO78h7Ib8IjY6sS0TZ9yGc7D9//vxlEWlLJClmcAbS34Hasr5Tp06rsVSBw20AJahxQECfPn1ew2hcX0ygawHQQRM1W7EK/wQHVGW2yIQjCWFf7vzyTZZh+8Mo3cBswsKI4AoKplxFRTEA4g3JJAkv/fBGZWLn4a/5dPx9li6XjAgmfPDMpKXOVK8Km2LVicwtwiBCLEZ9oskQr1WZ7ZQYz/9pGHgTQMdSazbAs1P1VhUD21nY+PHjXcIvfNRPQMNYitHM+VYRLUjMrl69moPV+oGfn98WeDQmHj58eK8g3mMuW7Zs2Q5ifgCcFf+BkdpYGnJKOz/48YMnN57eOCwyILI/XrBgS5VG1ChuN+dBhQcekpcHGFPgk6HJScrTp60f8sQ7a0a6UL2y1EZzcWQUE57y/bESXxSMm6JGMc2VJTac7LyJ33os1bpGygZ4YutxRDoyK33WrFn98f6KHvWVSgdRReE8uvqNN95YumDBghNSyyH5MFeS+wPr2sahsDW2FETziudA9ILeURfvX7M4NO8XIGMqRiqLpB8efEgtPACZAZ/MFPXt+A7Vuq/8rOcct1GvxHPnUcphw4a12rFjx2DYFGKI2/+jGPtdFb5M8ahrJVZFLNP8IvOxMCA0GJ7JducXr4piDe2lYvdiL62XCPhE4SvsVAt+aUR5Q/z+i9vCpm/5IjZL/TAaqphJFSP8cV9GVmiV48GHBx7CI2PwSYNtKdIvYmnCkE0e1Z/EsxZfW7v6u5CXCf46e55++mm7vUzu8tzy/lRYu7kTWWbE1gO2pVONGzdOxAilXVVR69ZzsLUVNH8JDsT9Ftdwyf4l/TFbPgogVFzFgONhxGN+hjw8+JAbHoB48Lmfk3W6on9QwuAmQ2HXcd2ITInG2TFg0aJFYViZ8E18LPvDHlSq3cxS1WXJrmOpHZbiiD2I2M/Q1mjYsEx+3CzlJ3Hp6ennMZT+fx9++GF83759zY0el1aM2XgKPmZZ49yIyZs+bJV4dMPgxwIei0HNRSpGKDYa9PWTMabAB+mS7qrT10fVf2PNuLbvO2XYPPr71x9nlT6VOJ2elStUKauHr5bs4SqFw5MmTXoSgyHDoIr1t1YVIz5FmCKwHl65a8jQtZT6y1qeuXPnNvziiy+smgUAN5ULWJSfgM6PY8eOddgUJgo+bvY0lbAHFUo/PPgUSj0Zd3PTE5oHPrVyXkycw+0UC/9cWOn30/u6BPmEtMbENmxEx4WSabA4Z6jzcy9rdfkH3m310Xqsm2zd+iA28J5XLcRM1eDtOq+99tpK4pBqQ7VlNit28Gi5du3agXBp6ANVrJKphkAVPQt/ps2YOrUW048cBjp83RR8eE640Xnv+b2hM7ZNH5adl9MrUBHYqlyYgvEPkhMbT/6dh+k/VfQL+WHjgL0bHU3yiv0rVHvO7+inVKg6qRTK5gzHRkI9NOVQdlmdn7dfJfddtyh22T5H08WXX6haDIN68Abc/J/gw4Vn2Ct+wiaByzEheYMw3Fuv4XrSGXt59YQq1hogRKa35AB0LgJ0fsME4C2LFy++4CzeUPBxFqcl1DP/wPzHlh1Y1kHGyOoEVGZ1VUPKne7/1Ltbu9Xp5vAlN0csHdYhV6+OUslVbbHcRw2Qr8TvIX7pap06H/PPAhBXEWBUYBLnmBxcHcnV5u0OV4VunDPgu4sSmiwpC+Y/1Z49e/ZrwcHBz2N+X3UUwkF1SML1PgxBJ2ASqHgvc0kUlL1MmDkfAR+dypAKH8L95JIrWkDBxxVcd+M6P1z9dr3knJRe/j7+nTiGaw5SySb0WfidU+erj4SHRJwd8OygtFupN4L/7+iGegCiJ1QKFTEAk68ombF6Gw/V8UxN5i9dGnfcNPD5EQ73JkedRUejRo3CYZDmDh48eLcokF64JQco+LhltzifqB/+WFRt15m9PYOVwS9yLNMcMBIBqQbz6rlrkGZ+Zzl2y6oRa0qsW7P8t+UNfz7zUxelj+8LULsIWEUAtGR4sG7nafOOYHRqZ++n+q2Bd3WO81tFa3RnDlDwcefecQJt245s899wNJF4XHfzVfi2wEyNCEwDwQIfzM2cfPVRLafZ2a/FwMTSwOPzLTPqnbx1uleQKqgLyH4KP38D+RxzTa3P3aeUq9YuGbrcI73nndBNHlkFBR+P7FZxjRq+fGhHjU79hkrm1wFSTo3CXDm4PpKdl7GrfuVm66b2nHpFXGkFqcauGtUxU5NRskzsPpKlztoVGVTFqfYga2inaZ3LAQo+zuW3W9Q2A1LKeQtSSpXgiLWz3/hSspRiTppC411qD3IL5lMiijhAwaeIFZ5/wdt1fGTKF2EkJkPTDrXPkPr2nvu9J8twTqnP83vQs1pIwcez+tNkayxJImqt+ni+XuPQkanSJK1gZcjaeYMWSpa0TDaaBro9Byj4uH0X2UZgaTaYBlWbbJzaY6pTfHLM2pgK7UHOpMU2rtLc9uAABR97cNENy5ixaUatC3dP9gn0DekCh8AWILHY6JOrpA1LUhgeRpf5B7lhF3o8SRR8PKyLyZSIX5N+juH0bDd/H9VTGDqPFPrdYDh95ytNe7rc74a3Pxn8ihimpP2JhX/QE9Q/yMMez2LNoeBTjB1l+2b48iHtNFpNXz+Fqh1ApyYkHjmmPNyGZ/IJjmF/6diwjdM9jkvjKLEHXb53sZef3Le4fxDDXFdr8/YFqQITvh8Y90tp5fDxu0/+1Pep6i2fg9+S3920u2c2H928etLrkx7w8fTsPhyg4OM+fWETJYMXx4xUKfx6waO4Jfx0yJSIDDgLnshUZ+4pC7aUInuQ3K8jaK9eyAwt2nIwMzdjQ717jedifRqjHcgKU+H05qI3/WdFz/rsTvrtYTcf3AwiMXXC6zI1K9dcvXj34o9GdBlx51FqeuUOHKDg4w69YAMNWL+ZHbli2GQU0Rs/MsdKBonnKqSGX0MCQtbN7T/fabPMbWiGIevuk7sDVv21dCBcAV7z9VE9h4czoLDMmxiVS/DlAqYvHrHY5DSNE1eOfdSs5hOzZ239lKlRsTYTERLOfLHvC2bb2B1MjiZnRoBvwMe20kfz25cDhYt02rdQWprzODBixbBhqO11AE4jqFo5am3ufrVePXfw88PGlyXgIRzr3Kzzw4RR6xe2qd9+QnZe5gq0iZ8cGokZ9EM1spwxpjg7bd20wNrhdV/g4wjwNKzaiAn2CWDSslIZf6X/i6sOrsIaRPRwJw5Q8HGn3rCSlqj5UYEsxzyHbNWhnmTk6fJ+bluvw5erhsfPb9+ovcM2RrSSTKuTx7aLPT6n+zfTHq9YYy0kHkxuxcEyYQCgTiNXDK5uuBf8q1jRPzDAP8Cw+mNAQCCz8/R2ZsbWaUz3Zq8z5YMqkJSVAuQBFQVZ6KUbcICCjxt0glQS/JSKmpiBTpay0BBnwQldP/phWLthrt5ITmpziuXDtjkPJnafvLpNnbaH0DZDHEbtaudq8usWS4ibMe0/TE5/mG6Yg/bwYTYz4NnBzHcD5jPxR1bzSW/dy73HS1F8GD27mAMUfFzcAbZUz2plQZi6QGw8KRpt/uEGkU2221Keu+XFiNWRyPLVjgnoCsYyruUE90WX209u2YKbqwUBj0yZD7Ie5CanJu8Y3WZ0WlFieuEWHFC4BRWUCGkcYDk5MuZDJbmPs1O8lI0JXcetkx9N/Lv+ney7VXS6/CA9wxr2aoGUku/ro8yMCA6/8wTT+iKW7yxQn4wLKPWevYb2wZyF/wxcBxi9yb1gBjw3eGPY8cpBE1+dEo10TUlaGJsvX793fXONyjW+xD093IwDFHzcrEOsIYeVyzCyzmpZlsvG/hb3rMlra9qYhX2eU8h8XtixdGszLCJWw8/HL5RRqDA6xRJAxBpkDIbJ2ezU7PSUHdot1wYu6X9Gp1MfjB+5warRN5bRp6EsMsJFRr4ICJk9uj7RdeWK/d9sDg2uVR82INl/WReuDmk1JtlsBhrhUg5Q8HEp+22vHJsK6jDczmGd5VxbShu1fHhHHaNvotHlnVk5fM3P5soaOq9vhM5XPsJP4dsVSNAYYONnSGuAhUfqjkFOYThij6qFGfRPAzbuM3Lf6yOWDTuelZ+xI2HkBqImlX5wTB4SaUlCUgXA1iIADWn/bjqS/UPS08O9OUBtPu7dP6VSB9GHSD96vJkS1RqGGbpsaISe1cfAKXEIgKz/8r0LapqqOHpBr5qKgIAZAJN34F7Usgh4kBhGYTV+Wfil45eGXyr5ASnSQRtZoCwMyVrgPDhIGTJl4OLot03VYRyml6FthRIPbEAcK7MMPsb56b37coBKPu7bN6VSpidblkLJwTvJ6eTSX0o8BPU4PfMkysHOlpxMJ/PBmTfeFpAxeMVglZKTv4v4/qiR7GTB5GnVGRqd5lCTiKanalSsc6Ocf1Am4EFDAANAwaY+TPX5997VoNN3TkQqZMommPbRAnkrIWsLP4WfT/TC3ncTRm34saAGM/8LINWitGMmJw12cw5Q8HHzDnIGeaxMVh74FVb4hldmWX24cb16jXYQ4yN/HdKRAXiy8jLv9n06ZnX35j3WAGdOGqc3vv/t9N6my/5eOQD7f/UDAFVFfLMg3+BX31nxzq5vh3xLVCV6eBkHqNrlZR1usrkc4wPg8S2M88N1oDDdp5s/fUyl8H0JFp0IEg51iun7TPTPAJ4FYoCH5GnbpOOpaVEzPgNorTPYf0ggw9ZJyb35jOGS/vM6DlDw8bouN9VgnQy6W+GzwCkAKAbphk956d75xjBok3ljhgMrH2qeqtbqDNJd48PEnGuUr5H+UsOOC7GbxWbYfs4ChDLkPr78/C0xRdA0HsQBCj4e1Jn2aQp8Fjk4LgoO7JiKWfIsmSlfcHCMUsEqCka5+DCR5yHtRl7Gfl4LYLBexci4nT4se0JkVprMwzhAbT4e1qG2NwdugjD6CMvx81Vl6HX6orliPnIls+/8vucAUm2Q9ndhWjHXP47aeBzpyI8eXsyBYl84L+YDbXoRBwzD9vlFt7h4slqr07n56rN8GIbamd1ndnQc98Po97cf3xJ148YNSVIQXx49eycHqOTjnf1uqdV6SDQaYYLh7Yff7Leg93Y/HxV8e5jHSBwBIAyzv7r+8Lom65l1fQYuiT4fIPf7LzK05h1MZ7gRpAhKKm2XU2Ed9Nr7OEDBx/v6vLQWw0fH4FVcLF3i6A0rBi2KiVD5qEYgwgBAJAFAqAZO5MfoOSb7vwdXUy/dPXcXzoo3Bi+Ovp6n1dwI8gu5VT6g3J3mj7W42e+ZftdJWnpQDlDwoc9AcQ5gqgYjY4upXXyCVSPiP4teGHULNp+eWFunNUasyPSJRwdrGKIPBCBVQyDxgM7F0q7ZGLrPTs/OSPvp9LbkQUtikgBMJ1vUan1gXIdxVx5lplfexgEKPt7W4yLaa2n+FFYaXDlnx5xdJ68fbuejVD4Fz+iGkJQifRUqrNrFwVfIMGRPJnnB95pTAXgqAs4q4roGvJoLaueYm0eT/jnSb0GfjYmj160RQRJN4oEcoODjgZ0qpUlkghhBDEgzmCDPmFy2gi/3w5c/JDPF15LfDyd/CEhNSa2VfP/f8DuZyUH5unyVnpH5+8p8ymO6BrZjZmvAQRFqGfs40htWG0QdkSofP/y4+jFxfQLjR66L48umZ+/hAAUf7+lrcS3lOHg7c8U8nC1lHNhs4EPEnyr8lUi6dNfSCimaO80v3rnQCqsuPgd17QWAT2H5bP1AZdDgmPlvHI0fs/ZwicwkAPITPTyTAxR8PLNfrW6VQeohuWSsUsYy5a0uwEyG2C6xqYj6hfzO3zxfd/PRDbEX7l4YDrsQvyJhax+lTxfEmwQfVq8vIs1MFTS4jHKA+vmU0Y5zANkFLzn0JHgZhkINI0Zjux4NIhtcmvDqlO/qVq63ncwP4w+O0zfjr0uc5VT0KcETDwmgko+HdKQ9m4EZ7sQ2Ux0AlPl+4vvhD7LvPE1sNzAL3VYoMhOWD9uaJbU+eETf+vXsL4cv3b34Osoo2D8ey2ws+2NZxLDnh92WWi7NV/Y4QMGn7PWZwykG0JDnggBDeFhg+Ub3s5I7YBM/shphTp4uiAyvf2ILEShfj/wFK/UUFKTVPNQYViu0pVyat2xxgKpdZau/nENtgYczMSRnVqtQIxeKmBJLlVXHcFhT2Gr6f5QwfqxUQiBNhfx15U+iZhm2NDaUw3FXRnUe5dQ1qKXST/PZjwMUfOzHy7JeElxyCg9sQIirm1CRbreq1epwvjbvJADoTmFsneTs5OFL9y96i08u9gzgUW49sXn0pTvnOwPE+Gz/aTgtMUibPnRCAcl0EhpaNjlAwads9puBaplMbjASExcdToeBbBuOR8jD6LAUahqA5xoprk6VOinNqzdbm6tV78KtYc4XgKPJ75d+e3fEsqHfxP8Z31ZMtTuP7Ww38cfxX2w6vGEEpmjw0zPy1fnqzYkj1yWaK4OTyQSkmUtFw8siB6jNpyz2moBm4A5xDsSPXwxMECntMh+LyRPJp+j4sNvUKwOX9PseAcRFuTd+KgBITZzf3HN2Z0vM+TqBXS+SQEQKJKRcJavSazg12czQD1MpKoKy2muPxDcHaD0BT+hCIzOD4S52Xb5O/R3KMXsUDrXbBKxmC6cRLuUABR+Xst+2yjkd5oDKWYgGHNnBC1MbpB+AMBRj+NPiTS9au4cv8YfhiafeXT16empOxn0AyCsAmtqI8wegtMa5lsrHNx0SmAbFYIs/lvVlldCycMNyWBXRsMtoGNIZnjdUk4TF57fLddy8hNEbr/J1mDrLsMA0QKxIQkeJVBIyxagyGEbBpwx2Gk9yodrlg9cREglrg2OgnKxeSCQo+BgyOiwnRvbKKnF8M2BBEgLfHbgk5h/U+QK8lesAXILJLqWQvLAoIRmiZwMh/WB6BpuPe4AY+xBokQwEuYEqMtU69WWtXvNr/Mj1ZHpGqQd2wiBrShdM9wBq6fWYO08Pj+AABZ8y3I06Dmsvc5wfXvYwhuWIGiTpYDk9WcPZoNrgzSZ7MJuc1c4X/sPweMO8rlnbZ9W8eu/SYxptbhjHycMYmT5cxrGVIJz4QULJ1bPcPUYvS8aaz/cDfQPuh5YLuTG71zKLkg5fB39mdfpKoIyoe2gmNg+UFdid+Hh6LrscoOBTdvsO7zqULfKiM0wkJ2Nb/Hvn34aPV3n8nLVNwk58UI0M+74Xal7FfHDMFjfxlYkESKwCE7OFmYiANCbbfXJXPT4KMk8OtMxi9ig+jp7LHgeKdOmyRzqlWMdqsw22GoYN9ZH5tNlzftfgZC7Z6t0gYOkh86wM0gXEC2y/rC+2kqGrOH03427U/gt7W/LD8tis9JZer/nXVfTQeu3LASr52JefTi1Np5ddIfYUoi9h0a6KfyT9FvP75d+Y3ad3z+vcpPMNscQAwKpB5OEnUakZmVzy9AmxdZaWbum+uO7vJY4dgo0F6/Np4Rl9eNWItXQBMp4hZfxMJZ8y3IEJoxPSNPnqAwAfgzQACSEC6ywPS/h71ay3f3irs5imXbt9rX5ufs4TfFoYjlNDlCFkvR6XHDsv7wwevCTmnd+u/D4BwCNoA/dLZm7mBpcQRSt1CAco+DiErc4r9Jkn28bBAXA1auQlggqQgnqrtblT+i2Mmjxz28wiycGYKjLCdeHehUEAnDZFcZz+XyaEuVh078SLCWvf7/jj/vhvfOWq97Cv+7OFVeugCu7JVGfPSxyz/g8nkkOrcjAHiMRODw/gAHaXGOKr8O2hVKhaYnSoClYjhJbC3IIh+WR2Xubvbeu9dODN9m8egYqlI80F8Dyx59SufgmH1gzFkHkoz4KsvIwZCaM2fMzfO+M8Y9OMWhfunuwT6BvSBVS3QJ0GR0SolP9i6Y09FXzLrfh20Py/nUELrcN5HKDg4zxeO7ymRT8vqnbgyt6ewcrgF/HiNseLHIFKMYzOpOAlvoYlTq8HqYLTy/uFBGDJUyIRFRlzCXFwoznPsfpRS4auOEDuHX2s+2ud3+ZT66MVrLKbv4/qKdAcCeM3XI1ktyG5HcXDuX1QndjV7du3f7T4j6OJouU7jQMUfJzGaudVNPP/ptU9fffs6wChTgCe5qhZjANiPhwA56waHj/FGZQOWTLgRR2n7+On8G0HD54aAEo5YPI25nqdgF/QL10ad9w08PkR/zmDFlqHazhAwcc1fHdKre+seeu5tJz017CAO7HpNMTv0TIWxSjgHqh1efERIRU+ndVnXkqxKDvffBA/rk5K9oNeWB+IGJMJMJJh/gzYnU5kqtP3NKjabOPUHlNdYnOyc1NpcaVwgIJPKQzyhOixq0e1yczJbIu5E81UcuwkwTKhBkmDYdLy8tUX1Pr8fa1Cn17zXp/3ch3V3q/3fV318OW/egT5hLwIuxNAh6sKiQemJ+46JK7fyinLrZ87eP4+R9VPy3U/DlDwcb8+cRhF67h18oPxB+tp9DnYR4thqparcl99TH9+2rRpekdVumL/CtWe8zv6+cp9O0PaIZJOeGFdyQC+E3m6vN1vNhiTSO06juoB9y2Xgo/79k2Zp4zYdfScPgpD5+0g7VSHtIPnjb0FaedEVn7GL23rdNgyqsMojMjRwxs5QMHHG3vdwW02Y9dJR7UnMvMydzes2HTj1N5TLzuYDFq8m3OAgo+bd5AryBu8YrBKr82rq9doc9aMWU+W0RB1WLLr5OnUB7Bd8vq4oUt/EVUYTeTxHKDg4/FdbH0DsTzqMKhJbeBzE6DW5l1m9NyuVSMTfjNX0pp/1gTvPLolSqlUvgQVq4RdB547u1+o3SFxSPsh1F/HHBO9MJyCjxd2emlNHrl82FuwzkRhRAzD8xy2DJWdz9XmHggPCN83sPnQfxo1amSY9b7n2J6I/zv+Y/scXV5nTIfA3l7M43ig8MfBjiM7Dm/pX55r+PSWMe3Gi57kWhptNN5zOEDBx3P60m4teXv1qHrpuVkjMFG1K0bD6wGEyHNC1tG5lqXJvN669rOpd+7f9Lmdeaeqn9yvLmIjCysnUzeOY+h8d5XAyhtn9/v6eGE4PVEOlOAABZ8SLKEBhAPbj25vsP5o4gBcdgUIEVWq6CBbHfNr7BQF4iJPm3dAKVeu79XijZWdm3Um+37Rg3LALAco+JhlDY1IzU5tsunIxr77zu3pgTlhjcxxpHDf9WNdGr+S2LVh12XlypVLM5eWhlMO8BwgLqZ1YVy8xAfQM+UAzwE8G2R2+etnb5zuvfqvVT2SM5OLSTwEdPJ1GqZxRFNmaLvYdZVDwuPxLG3l89Mz5YA5DhhwB/++RYIFFIDMsck7w/FcqNDyp/Aj88I64df+t3O/Mn8m/cH8++A6g+U7mKaPNWfa1+/A1AyviWjmZ/x24rcfz9JJEkAPygFTHCDAg/DR/w/kPiiXdxspUwAAAABJRU5ErkJggg==;" vertex="1" parent="1">
          <mxGeometry x="760" y="493.76" width="66.4" height="40.49" as="geometry" />
        </mxCell>
      </root>
    </mxGraphModel>
  </diagram>
</mxfile>
